<?xml version="1.0" encoding="UTF-8" standalone="no"?>
<!DOCTYPE svg PUBLIC "-//W3C//DTD SVG 1.1//EN"
 "http://www.w3.org/Graphics/SVG/1.1/DTD/svg11.dtd">
<!-- Generated by graphviz version 2.40.1 (20161225.0304)
 -->
<!-- Title: %3 Pages: 1 -->
<svg width="2022pt" height="1556pt"
 viewBox="0.00 0.00 2022.00 1556.00" xmlns="http://www.w3.org/2000/svg" xmlns:xlink="http://www.w3.org/1999/xlink">
<g id="graph0" class="graph" transform="scale(1 1) rotate(0) translate(4 1552)">
<title>%3</title>
<polygon fill="#ffffff" stroke="transparent" points="-4,4 -4,-1552 2018,-1552 2018,4 -4,4"/>
<!-- pytest_collectstart -->
<g id="node1" class="node">
<title>pytest_collectstart</title>
<g id="a_node1"><a xlink:href="https://docs.pytest.org/en/6.2.x/reference.html#pytest.hookspec.pytest_collectstart" xlink:title="pytest_collectstart">
<polygon fill="none" stroke="#000000" points="558,-1548 198,-1548 198,-1512 558,-1512 558,-1548"/>
<text text-anchor="middle" x="378" y="-1526.3" font-family="Times,serif" font-size="14.00" fill="#000000">pytest_collectstart</text>
</a>
</g>
</g>
<!-- pytest_make_collect_report -->
<g id="node13" class="node">
<title>pytest_make_collect_report</title>
<g id="a_node13"><a xlink:href="https://docs.pytest.org/en/6.2.x/reference.html#pytest.hookspec.pytest_make_collect_report" xlink:title="pytest_make_collect_report">
<polygon fill="none" stroke="#000000" points="663,-1476 303,-1476 303,-1440 663,-1440 663,-1476"/>
<text text-anchor="middle" x="483" y="-1454.3" font-family="Times,serif" font-size="14.00" fill="#000000">pytest_make_collect_report</text>
</a>
</g>
</g>
<!-- pytest_collectstart&#45;&gt;pytest_make_collect_report -->
<g id="edge20" class="edge">
<title>pytest_collectstart&#45;&gt;pytest_make_collect_report</title>
<path fill="none" stroke="#000000" d="M404.4959,-1511.8314C417.6774,-1502.7927 433.7847,-1491.7476 447.9711,-1482.0198"/>
<polygon fill="#000000" stroke="#000000" points="450.2446,-1484.7047 456.5125,-1476.1628 446.2859,-1478.9316 450.2446,-1484.7047"/>
</g>
<!-- pytest_report_teststatus -->
<g id="node2" class="node">
<title>pytest_report_teststatus</title>
<g id="a_node2"><a xlink:href="https://docs.pytest.org/en/6.2.x/reference.html#pytest.hookspec.pytest_report_teststatus" xlink:title="pytest_report_teststatus">
<polygon fill="none" stroke="#000000" points="1050,-324 690,-324 690,-288 1050,-288 1050,-324"/>
<text text-anchor="middle" x="870" y="-302.3" font-family="Times,serif" font-size="14.00" fill="#000000">pytest_report_teststatus</text>
</a>
</g>
</g>
<!-- pytest_runtest_logreport -->
<g id="node20" class="node">
<title>pytest_runtest_logreport</title>
<g id="a_node20"><a xlink:href="https://docs.pytest.org/en/6.2.x/reference.html#pytest.hookspec.pytest_runtest_logreport" xlink:title="pytest_runtest_logreport">
<polygon fill="none" stroke="#000000" points="738,-252 378,-252 378,-216 738,-216 738,-252"/>
<text text-anchor="middle" x="558" y="-230.3" font-family="Times,serif" font-size="14.00" fill="#000000">pytest_runtest_logreport</text>
</a>
</g>
</g>
<!-- pytest_report_teststatus&#45;&gt;pytest_runtest_logreport -->
<g id="edge41" class="edge">
<title>pytest_report_teststatus&#45;&gt;pytest_runtest_logreport</title>
<path fill="none" stroke="#000000" d="M791.6719,-287.9243C747.3594,-277.6983 691.8211,-264.8818 646.0087,-254.3097"/>
<polygon fill="#000000" stroke="#000000" points="646.6206,-250.859 636.0896,-252.0207 645.0465,-257.6797 646.6206,-250.859"/>
</g>
<!-- pytest_unconfigure -->
<g id="node36" class="node">
<title>pytest_unconfigure</title>
<g id="a_node36"><a xlink:href="https://docs.pytest.org/en/6.2.x/reference.html#pytest.hookspec.pytest_unconfigure" xlink:title="pytest_unconfigure">
<polygon fill="none" stroke="#000000" points="1154,-252 794,-252 794,-216 1154,-216 1154,-252"/>
<text text-anchor="middle" x="974" y="-230.3" font-family="Times,serif" font-size="14.00" fill="#000000">pytest_unconfigure</text>
</a>
</g>
</g>
<!-- pytest_report_teststatus&#45;&gt;pytest_unconfigure -->
<g id="edge57" class="edge">
<title>pytest_report_teststatus&#45;&gt;pytest_unconfigure</title>
<path fill="none" stroke="#000000" d="M896.2436,-287.8314C909.2995,-278.7927 925.2535,-267.7476 939.3047,-258.0198"/>
<polygon fill="#000000" stroke="#000000" points="941.5351,-260.7326 947.7648,-252.1628 937.5506,-254.9773 941.5351,-260.7326"/>
</g>
<!-- pytest_configure -->
<g id="node3" class="node">
<title>pytest_configure</title>
<g id="a_node3"><a xlink:href="https://docs.pytest.org/en/6.2.x/reference.html#pytest.hookspec.pytest_configure" xlink:title="pytest_configure">
<polygon fill="none" stroke="#000000" points="946,-540 586,-540 586,-504 946,-504 946,-540"/>
<text text-anchor="middle" x="766" y="-518.3" font-family="Times,serif" font-size="14.00" fill="#000000">pytest_configure</text>
</a>
</g>
</g>
<!-- pytest_plugin_registered -->
<g id="node26" class="node">
<title>pytest_plugin_registered</title>
<g id="a_node26"><a xlink:href="https://docs.pytest.org/en/6.2.x/reference.html#pytest.hookspec.pytest_plugin_registered" xlink:title="pytest_plugin_registered">
<polygon fill="none" stroke="#000000" points="946,-612 586,-612 586,-576 946,-576 946,-612"/>
<text text-anchor="middle" x="766" y="-590.3" font-family="Times,serif" font-size="14.00" fill="#000000">pytest_plugin_registered</text>
</a>
</g>
</g>
<!-- pytest_configure&#45;&gt;pytest_plugin_registered -->
<g id="edge10" class="edge">
<title>pytest_configure&#45;&gt;pytest_plugin_registered</title>
<path fill="none" stroke="#000000" d="M771.976,-540.4133C772.7071,-548.0593 772.9203,-557.1084 772.6155,-565.5726"/>
<polygon fill="#000000" stroke="#000000" points="769.1048,-565.6264 771.9524,-575.8314 776.0902,-566.078 769.1048,-565.6264"/>
</g>
<!-- pytest_cmdline_main -->
<g id="node4" class="node">
<title>pytest_cmdline_main</title>
<g id="a_node4"><a xlink:href="https://docs.pytest.org/en/6.2.x/reference.html#pytest.hookspec.pytest_cmdline_main" xlink:title="pytest_cmdline_main">
<polygon fill="none" stroke="#000000" points="1154,-684 794,-684 794,-648 1154,-648 1154,-684"/>
<text text-anchor="middle" x="974" y="-662.3" font-family="Times,serif" font-size="14.00" fill="#000000">pytest_cmdline_main</text>
</a>
</g>
</g>
<!-- pytest_cmdline_main&#45;&gt;pytest_plugin_registered -->
<g id="edge8" class="edge">
<title>pytest_cmdline_main&#45;&gt;pytest_plugin_registered</title>
<path fill="none" stroke="#000000" d="M921.7813,-647.9243C893.2229,-638.0387 857.6705,-625.7321 827.7432,-615.3726"/>
<polygon fill="#000000" stroke="#000000" points="828.835,-612.0469 818.2402,-612.0831 826.5451,-618.6618 828.835,-612.0469"/>
</g>
<!-- pytest_collectreport -->
<g id="node5" class="node">
<title>pytest_collectreport</title>
<g id="a_node5"><a xlink:href="https://docs.pytest.org/en/6.2.x/reference.html#pytest.hookspec.pytest_collectreport" xlink:title="pytest_collectreport">
<polygon fill="none" stroke="#000000" points="725,-1188 365,-1188 365,-1152 725,-1152 725,-1188"/>
<text text-anchor="middle" x="545" y="-1166.3" font-family="Times,serif" font-size="14.00" fill="#000000">pytest_collectreport</text>
</a>
</g>
</g>
<!-- pytest_collection_modifyitems -->
<g id="node9" class="node">
<title>pytest_collection_modifyitems</title>
<g id="a_node9"><a xlink:href="https://docs.pytest.org/en/6.2.x/reference.html#pytest.hookspec.pytest_collection_modifyitems" xlink:title="pytest_collection_modifyitems">
<polygon fill="none" stroke="#000000" points="754,-1116 394,-1116 394,-1080 754,-1080 754,-1116"/>
<text text-anchor="middle" x="574" y="-1094.3" font-family="Times,serif" font-size="14.00" fill="#000000">pytest_collection_modifyitems</text>
</a>
</g>
</g>
<!-- pytest_collectreport&#45;&gt;pytest_collection_modifyitems -->
<g id="edge30" class="edge">
<title>pytest_collectreport&#45;&gt;pytest_collection_modifyitems</title>
<path fill="none" stroke="#000000" d="M552.3179,-1151.8314C555.4876,-1143.9617 559.27,-1134.5712 562.7813,-1125.8533"/>
<polygon fill="#000000" stroke="#000000" points="566.0939,-1126.9968 566.5835,-1116.4133 559.6008,-1124.3815 566.0939,-1126.9968"/>
</g>
<!-- pytest_runtest_logfinish -->
<g id="node6" class="node">
<title>pytest_runtest_logfinish</title>
<g id="a_node6"><a xlink:href="https://docs.pytest.org/en/6.2.x/reference.html#pytest.hookspec.pytest_runtest_logfinish" xlink:title="pytest_runtest_logfinish">
<polygon fill="none" stroke="#000000" points="1494,-180 1134,-180 1134,-144 1494,-144 1494,-180"/>
<text text-anchor="middle" x="1314" y="-158.3" font-family="Times,serif" font-size="14.00" fill="#000000">pytest_runtest_logfinish</text>
</a>
</g>
</g>
<!-- pytest_runtest_protocol -->
<g id="node8" class="node">
<title>pytest_runtest_protocol</title>
<g id="a_node8"><a xlink:href="https://docs.pytest.org/en/6.2.x/reference.html#pytest.hookspec.pytest_runtest_protocol" xlink:title="pytest_runtest_protocol">
<polygon fill="none" stroke="#000000" points="1835,-684 1475,-684 1475,-648 1835,-648 1835,-684"/>
<text text-anchor="middle" x="1655" y="-662.3" font-family="Times,serif" font-size="14.00" fill="#000000">pytest_runtest_protocol</text>
</a>
</g>
</g>
<!-- pytest_runtest_logfinish&#45;&gt;pytest_runtest_protocol -->
<g id="edge49" class="edge">
<title>pytest_runtest_logfinish&#45;&gt;pytest_runtest_protocol</title>
<path fill="none" stroke="#000000" d="M1465.8762,-180.0212C1661.3212,-205.3161 1976,-254.101 1976,-306 1976,-522 1976,-522 1976,-522 1976,-573.6181 1836.0755,-619.8466 1740.9908,-645.3018"/>
<polygon fill="#000000" stroke="#000000" points="1739.8448,-641.9844 1731.0725,-647.9256 1741.6351,-648.7517 1739.8448,-641.9844"/>
</g>
<!-- pytest_sessionfinish -->
<g id="node41" class="node">
<title>pytest_sessionfinish</title>
<g id="a_node41"><a xlink:href="https://docs.pytest.org/en/6.2.x/reference.html#pytest.hookspec.pytest_sessionfinish" xlink:title="pytest_sessionfinish">
<polygon fill="none" stroke="#000000" points="1532,-108 1172,-108 1172,-72 1532,-72 1532,-108"/>
<text text-anchor="middle" x="1352" y="-86.3" font-family="Times,serif" font-size="14.00" fill="#000000">pytest_sessionfinish</text>
</a>
</g>
</g>
<!-- pytest_runtest_logfinish&#45;&gt;pytest_sessionfinish -->
<g id="edge54" class="edge">
<title>pytest_runtest_logfinish&#45;&gt;pytest_sessionfinish</title>
<path fill="none" stroke="#000000" d="M1323.589,-143.8314C1327.8317,-135.7925 1332.9121,-126.1666 1337.596,-117.2918"/>
<polygon fill="#000000" stroke="#000000" points="1340.7096,-118.8908 1342.2819,-108.4133 1334.5189,-115.6235 1340.7096,-118.8908"/>
</g>
<!-- pytest_report_collectionfinish -->
<g id="node7" class="node">
<title>pytest_report_collectionfinish</title>
<g id="a_node7"><a xlink:href="https://docs.pytest.org/en/6.2.x/reference.html#pytest.hookspec.pytest_report_collectionfinish" xlink:title="pytest_report_collectionfinish">
<polygon fill="none" stroke="#000000" points="813,-1044 453,-1044 453,-1008 813,-1008 813,-1044"/>
<text text-anchor="middle" x="633" y="-1022.3" font-family="Times,serif" font-size="14.00" fill="#000000">pytest_report_collectionfinish</text>
</a>
</g>
</g>
<!-- pytest_collection_finish -->
<g id="node10" class="node">
<title>pytest_collection_finish</title>
<g id="a_node10"><a xlink:href="https://docs.pytest.org/en/6.2.x/reference.html#pytest.hookspec.pytest_collection_finish" xlink:title="pytest_collection_finish">
<polygon fill="none" stroke="#000000" points="931,-972 571,-972 571,-936 931,-936 931,-972"/>
<text text-anchor="middle" x="751" y="-950.3" font-family="Times,serif" font-size="14.00" fill="#000000">pytest_collection_finish</text>
</a>
</g>
</g>
<!-- pytest_report_collectionfinish&#45;&gt;pytest_collection_finish -->
<g id="edge32" class="edge">
<title>pytest_report_collectionfinish&#45;&gt;pytest_collection_finish</title>
<path fill="none" stroke="#000000" d="M662.7764,-1007.8314C677.8693,-998.6221 696.3757,-987.3301 712.5343,-977.4706"/>
<polygon fill="#000000" stroke="#000000" points="714.5198,-980.3593 721.2331,-972.1628 710.8737,-974.3838 714.5198,-980.3593"/>
</g>
<!-- pytest_runtest_logstart -->
<g id="node18" class="node">
<title>pytest_runtest_logstart</title>
<g id="a_node18"><a xlink:href="https://docs.pytest.org/en/6.2.x/reference.html#pytest.hookspec.pytest_runtest_logstart" xlink:title="pytest_runtest_logstart">
<polygon fill="none" stroke="#000000" points="1835,-612 1475,-612 1475,-576 1835,-576 1835,-612"/>
<text text-anchor="middle" x="1655" y="-590.3" font-family="Times,serif" font-size="14.00" fill="#000000">pytest_runtest_logstart</text>
</a>
</g>
</g>
<!-- pytest_runtest_protocol&#45;&gt;pytest_runtest_logstart -->
<g id="edge36" class="edge">
<title>pytest_runtest_protocol&#45;&gt;pytest_runtest_logstart</title>
<path fill="none" stroke="#000000" d="M1655,-647.8314C1655,-640.131 1655,-630.9743 1655,-622.4166"/>
<polygon fill="#000000" stroke="#000000" points="1658.5001,-622.4132 1655,-612.4133 1651.5001,-622.4133 1658.5001,-622.4132"/>
</g>
<!-- pytest_collection_modifyitems&#45;&gt;pytest_report_collectionfinish -->
<g id="edge31" class="edge">
<title>pytest_collection_modifyitems&#45;&gt;pytest_report_collectionfinish</title>
<path fill="none" stroke="#000000" d="M588.8882,-1079.8314C595.753,-1071.454 604.0301,-1061.3531 611.5511,-1052.1749"/>
<polygon fill="#000000" stroke="#000000" points="614.2803,-1054.3665 617.9114,-1044.4133 608.8659,-1049.9297 614.2803,-1054.3665"/>
</g>
<!-- pytest_warning_captured -->
<g id="node38" class="node">
<title>pytest_warning_captured</title>
<g id="a_node38"><a xlink:href="https://docs.pytest.org/en/6.2.x/reference.html#pytest.hookspec.pytest_warning_captured" xlink:title="pytest_warning_captured">
<polygon fill="none" stroke="#000000" points="946,-900 586,-900 586,-864 946,-864 946,-900"/>
<text text-anchor="middle" x="766" y="-878.3" font-family="Times,serif" font-size="14.00" fill="#000000">pytest_warning_captured</text>
</a>
</g>
</g>
<!-- pytest_collection_finish&#45;&gt;pytest_warning_captured -->
<g id="edge33" class="edge">
<title>pytest_collection_finish&#45;&gt;pytest_warning_captured</title>
<path fill="none" stroke="#000000" d="M754.7851,-935.8314C756.3894,-928.131 758.297,-918.9743 760.0799,-910.4166"/>
<polygon fill="#000000" stroke="#000000" points="763.5507,-910.9169 762.1639,-900.4133 756.6979,-909.4892 763.5507,-910.9169"/>
</g>
<!-- pytest_terminal_summary -->
<g id="node11" class="node">
<title>pytest_terminal_summary</title>
<g id="a_node11"><a xlink:href="https://docs.pytest.org/en/6.2.x/reference.html#pytest.hookspec.pytest_terminal_summary" xlink:title="pytest_terminal_summary">
<polygon fill="none" stroke="#000000" points="1343,-36 983,-36 983,0 1343,0 1343,-36"/>
<text text-anchor="middle" x="1163" y="-14.3" font-family="Times,serif" font-size="14.00" fill="#000000">pytest_terminal_summary</text>
</a>
</g>
</g>
<!-- pytest_terminal_summary&#45;&gt;pytest_report_teststatus -->
<g id="edge56" class="edge">
<title>pytest_terminal_summary&#45;&gt;pytest_report_teststatus</title>
<path fill="none" stroke="#000000" d="M982.8238,-33.1481C892.2943,-42.6327 798.8175,-56.0683 785,-72 732.5839,-132.4363 746.4766,-181.8862 785,-252 791.91,-264.5765 803.1267,-274.6394 815.1782,-282.5078"/>
<polygon fill="#000000" stroke="#000000" points="813.6797,-285.6911 824.0514,-287.8539 817.2922,-279.6953 813.6797,-285.6911"/>
</g>
<!-- pytest_cmdline_preparse -->
<g id="node12" class="node">
<title>pytest_cmdline_preparse</title>
<g id="a_node12"><a xlink:href="https://docs.pytest.org/en/6.2.x/reference.html#pytest.hookspec.pytest_cmdline_preparse" xlink:title="pytest_cmdline_preparse">
<polygon fill="none" stroke="#000000" points="1154,-756 794,-756 794,-720 1154,-720 1154,-756"/>
<text text-anchor="middle" x="974" y="-734.3" font-family="Times,serif" font-size="14.00" fill="#000000">pytest_cmdline_preparse</text>
</a>
</g>
</g>
<!-- pytest_cmdline_preparse&#45;&gt;pytest_cmdline_main -->
<g id="edge7" class="edge">
<title>pytest_cmdline_preparse&#45;&gt;pytest_cmdline_main</title>
<path fill="none" stroke="#000000" d="M974,-719.8314C974,-712.131 974,-702.9743 974,-694.4166"/>
<polygon fill="#000000" stroke="#000000" points="977.5001,-694.4132 974,-684.4133 970.5001,-694.4133 977.5001,-694.4132"/>
</g>
<!-- pytest_pycollect_makeitem -->
<g id="node21" class="node">
<title>pytest_pycollect_makeitem</title>
<g id="a_node21"><a xlink:href="https://docs.pytest.org/en/6.2.x/reference.html#pytest.hookspec.pytest_pycollect_makeitem" xlink:title="pytest_pycollect_makeitem">
<polygon fill="none" stroke="#000000" points="757,-1404 397,-1404 397,-1368 757,-1368 757,-1404"/>
<text text-anchor="middle" x="577" y="-1382.3" font-family="Times,serif" font-size="14.00" fill="#000000">pytest_pycollect_makeitem</text>
</a>
</g>
</g>
<!-- pytest_make_collect_report&#45;&gt;pytest_pycollect_makeitem -->
<g id="edge21" class="edge">
<title>pytest_make_collect_report&#45;&gt;pytest_pycollect_makeitem</title>
<path fill="none" stroke="#000000" d="M506.7202,-1439.8314C518.4094,-1430.8779 532.6688,-1419.9558 545.2809,-1410.2955"/>
<polygon fill="#000000" stroke="#000000" points="547.4769,-1413.0222 553.2874,-1404.1628 543.2203,-1407.4651 547.4769,-1413.0222"/>
</g>
<!-- pytest_sessionstart -->
<g id="node14" class="node">
<title>pytest_sessionstart</title>
<g id="a_node14"><a xlink:href="https://docs.pytest.org/en/6.2.x/reference.html#pytest.hookspec.pytest_sessionstart" xlink:title="pytest_sessionstart">
<polygon fill="none" stroke="#000000" points="1324,-540 964,-540 964,-504 1324,-504 1324,-540"/>
<text text-anchor="middle" x="1144" y="-518.3" font-family="Times,serif" font-size="14.00" fill="#000000">pytest_sessionstart</text>
</a>
</g>
</g>
<!-- pytest_sessionstart&#45;&gt;pytest_plugin_registered -->
<g id="edge12" class="edge">
<title>pytest_sessionstart&#45;&gt;pytest_plugin_registered</title>
<path fill="none" stroke="#000000" d="M1055.3293,-540.0207C1002.0369,-550.3659 933.7927,-563.3761 876.9504,-574.0315"/>
<polygon fill="#000000" stroke="#000000" points="876.0259,-570.6437 866.8408,-575.9243 877.3141,-577.5242 876.0259,-570.6437"/>
</g>
<!-- pytest_collection -->
<g id="node15" class="node">
<title>pytest_collection</title>
<g id="a_node15"><a xlink:href="https://docs.pytest.org/en/6.2.x/reference.html#pytest.hookspec.pytest_collection" xlink:title="pytest_collection">
<polygon fill="none" stroke="#000000" points="568,-468 208,-468 208,-432 568,-432 568,-468"/>
<text text-anchor="middle" x="388" y="-446.3" font-family="Times,serif" font-size="14.00" fill="#000000">pytest_collection</text>
</a>
</g>
</g>
<!-- pytest_ignore_collect -->
<g id="node35" class="node">
<title>pytest_ignore_collect</title>
<g id="a_node35"><a xlink:href="https://docs.pytest.org/en/6.2.x/reference.html#pytest.hookspec.pytest_ignore_collect" xlink:title="pytest_ignore_collect">
<polygon fill="none" stroke="#000000" points="568,-396 208,-396 208,-360 568,-360 568,-396"/>
<text text-anchor="middle" x="388" y="-374.3" font-family="Times,serif" font-size="14.00" fill="#000000">pytest_ignore_collect</text>
</a>
</g>
</g>
<!-- pytest_collection&#45;&gt;pytest_ignore_collect -->
<g id="edge15" class="edge">
<title>pytest_collection&#45;&gt;pytest_ignore_collect</title>
<path fill="none" stroke="#000000" d="M388,-431.8314C388,-424.131 388,-414.9743 388,-406.4166"/>
<polygon fill="#000000" stroke="#000000" points="391.5001,-406.4132 388,-396.4133 384.5001,-406.4133 391.5001,-406.4132"/>
</g>
<!-- pytest_fixture_setup -->
<g id="node16" class="node">
<title>pytest_fixture_setup</title>
<g id="a_node16"><a xlink:href="https://docs.pytest.org/en/6.2.x/reference.html#pytest.hookspec.pytest_fixture_setup" xlink:title="pytest_fixture_setup">
<polygon fill="none" stroke="#000000" points="1816,-468 1456,-468 1456,-432 1816,-432 1816,-468"/>
<text text-anchor="middle" x="1636" y="-446.3" font-family="Times,serif" font-size="14.00" fill="#000000">pytest_fixture_setup</text>
</a>
</g>
</g>
<!-- pytest_runtest_makereport -->
<g id="node32" class="node">
<title>pytest_runtest_makereport</title>
<g id="a_node32"><a xlink:href="https://docs.pytest.org/en/6.2.x/reference.html#pytest.hookspec.pytest_runtest_makereport" xlink:title="pytest_runtest_makereport">
<polygon fill="none" stroke="#000000" points="1929,-396 1569,-396 1569,-360 1929,-360 1929,-396"/>
<text text-anchor="middle" x="1749" y="-374.3" font-family="Times,serif" font-size="14.00" fill="#000000">pytest_runtest_makereport</text>
</a>
</g>
</g>
<!-- pytest_fixture_setup&#45;&gt;pytest_runtest_makereport -->
<g id="edge39" class="edge">
<title>pytest_fixture_setup&#45;&gt;pytest_runtest_makereport</title>
<path fill="none" stroke="#000000" d="M1664.5147,-431.8314C1678.8342,-422.7074 1696.3624,-411.539 1711.7338,-401.7449"/>
<polygon fill="#000000" stroke="#000000" points="1713.9417,-404.4882 1720.4945,-396.1628 1710.1801,-398.5847 1713.9417,-404.4882"/>
</g>
<!-- pytest_exception_interact -->
<g id="node17" class="node">
<title>pytest_exception_interact</title>
<g id="a_node17"><a xlink:href="https://docs.pytest.org/en/6.2.x/reference.html#pytest.hookspec.pytest_exception_interact" xlink:title="pytest_exception_interact">
<polygon fill="none" stroke="#000000" points="1872,-180 1512,-180 1512,-144 1872,-144 1872,-180"/>
<text text-anchor="middle" x="1692" y="-158.3" font-family="Times,serif" font-size="14.00" fill="#000000">pytest_exception_interact</text>
</a>
</g>
</g>
<!-- pytest_runtest_teardown -->
<g id="node24" class="node">
<title>pytest_runtest_teardown</title>
<g id="a_node24"><a xlink:href="https://docs.pytest.org/en/6.2.x/reference.html#pytest.hookspec.pytest_runtest_teardown" xlink:title="pytest_runtest_teardown">
<polygon fill="none" stroke="#000000" points="1910,-108 1550,-108 1550,-72 1910,-72 1910,-108"/>
<text text-anchor="middle" x="1730" y="-86.3" font-family="Times,serif" font-size="14.00" fill="#000000">pytest_runtest_teardown</text>
</a>
</g>
</g>
<!-- pytest_exception_interact&#45;&gt;pytest_runtest_teardown -->
<g id="edge52" class="edge">
<title>pytest_exception_interact&#45;&gt;pytest_runtest_teardown</title>
<path fill="none" stroke="#000000" d="M1701.589,-143.8314C1705.8317,-135.7925 1710.9121,-126.1666 1715.596,-117.2918"/>
<polygon fill="#000000" stroke="#000000" points="1718.7096,-118.8908 1720.2819,-108.4133 1712.5189,-115.6235 1718.7096,-118.8908"/>
</g>
<!-- pytest_runtest_setup -->
<g id="node28" class="node">
<title>pytest_runtest_setup</title>
<g id="a_node28"><a xlink:href="https://docs.pytest.org/en/6.2.x/reference.html#pytest.hookspec.pytest_runtest_setup" xlink:title="pytest_runtest_setup">
<polygon fill="none" stroke="#000000" points="1835,-540 1475,-540 1475,-504 1835,-504 1835,-540"/>
<text text-anchor="middle" x="1655" y="-518.3" font-family="Times,serif" font-size="14.00" fill="#000000">pytest_runtest_setup</text>
</a>
</g>
</g>
<!-- pytest_runtest_logstart&#45;&gt;pytest_runtest_setup -->
<g id="edge37" class="edge">
<title>pytest_runtest_logstart&#45;&gt;pytest_runtest_setup</title>
<path fill="none" stroke="#000000" d="M1655,-575.8314C1655,-568.131 1655,-558.9743 1655,-550.4166"/>
<polygon fill="#000000" stroke="#000000" points="1658.5001,-550.4132 1655,-540.4133 1651.5001,-550.4133 1658.5001,-550.4132"/>
</g>
<!-- pytest_warning_recorded -->
<g id="node19" class="node">
<title>pytest_warning_recorded</title>
<g id="a_node19"><a xlink:href="https://docs.pytest.org/en/6.2.x/reference.html#pytest.hookspec.pytest_warning_recorded" xlink:title="pytest_warning_recorded">
<polygon fill="none" stroke="#000000" points="1154,-828 794,-828 794,-792 1154,-792 1154,-828"/>
<text text-anchor="middle" x="974" y="-806.3" font-family="Times,serif" font-size="14.00" fill="#000000">pytest_warning_recorded</text>
</a>
</g>
</g>
<!-- pytest_warning_recorded&#45;&gt;pytest_cmdline_preparse -->
<g id="edge6" class="edge">
<title>pytest_warning_recorded&#45;&gt;pytest_cmdline_preparse</title>
<path fill="none" stroke="#000000" d="M974,-791.8314C974,-784.131 974,-774.9743 974,-766.4166"/>
<polygon fill="#000000" stroke="#000000" points="977.5001,-766.4132 974,-756.4133 970.5001,-766.4133 977.5001,-766.4132"/>
</g>
<!-- pytest_runtestloop -->
<g id="node25" class="node">
<title>pytest_runtestloop</title>
<g id="a_node25"><a xlink:href="https://docs.pytest.org/en/6.2.x/reference.html#pytest.hookspec.pytest_runtestloop" xlink:title="pytest_runtestloop">
<polygon fill="none" stroke="#000000" points="1646,-756 1286,-756 1286,-720 1646,-720 1646,-756"/>
<text text-anchor="middle" x="1466" y="-734.3" font-family="Times,serif" font-size="14.00" fill="#000000">pytest_runtestloop</text>
</a>
</g>
</g>
<!-- pytest_warning_recorded&#45;&gt;pytest_runtestloop -->
<g id="edge34" class="edge">
<title>pytest_warning_recorded&#45;&gt;pytest_runtestloop</title>
<path fill="none" stroke="#000000" d="M1097.2002,-791.9707C1168.8325,-781.4879 1259.1486,-768.2709 1332.4746,-757.5403"/>
<polygon fill="#000000" stroke="#000000" points="1333.317,-760.9544 1342.7048,-756.0432 1332.3033,-754.0282 1333.317,-760.9544"/>
</g>
<!-- pytest_runtest_logreport&#45;&gt;pytest_runtest_logfinish -->
<g id="edge48" class="edge">
<title>pytest_runtest_logreport&#45;&gt;pytest_runtest_logfinish</title>
<path fill="none" stroke="#000000" d="M738.1204,-216.8457C854.3972,-205.7717 1005.4642,-191.3844 1123.6982,-180.124"/>
<polygon fill="#000000" stroke="#000000" points="1124.3278,-183.5799 1133.9509,-179.1475 1123.6641,-176.6115 1124.3278,-183.5799"/>
</g>
<!-- pytest_runtest_logreport&#45;&gt;pytest_exception_interact -->
<g id="edge51" class="edge">
<title>pytest_runtest_logreport&#45;&gt;pytest_exception_interact</title>
<path fill="none" stroke="#000000" d="M738.2508,-219.2271C754.0571,-218.077 769.8114,-216.9828 785,-216 1100.5758,-195.5811 1182.6524,-202.9955 1501.9466,-180.0573"/>
<polygon fill="#000000" stroke="#000000" points="1502.2256,-183.5463 1511.9473,-179.3345 1501.721,-176.5645 1502.2256,-183.5463"/>
</g>
<!-- pytest_runtest_call -->
<g id="node23" class="node">
<title>pytest_runtest_call</title>
<g id="a_node23"><a xlink:href="https://docs.pytest.org/en/6.2.x/reference.html#pytest.hookspec.pytest_runtest_call" xlink:title="pytest_runtest_call">
<polygon fill="none" stroke="#000000" points="738,-180 378,-180 378,-144 738,-144 738,-180"/>
<text text-anchor="middle" x="558" y="-158.3" font-family="Times,serif" font-size="14.00" fill="#000000">pytest_runtest_call</text>
</a>
</g>
</g>
<!-- pytest_runtest_logreport&#45;&gt;pytest_runtest_call -->
<g id="edge42" class="edge">
<title>pytest_runtest_logreport&#45;&gt;pytest_runtest_call</title>
<path fill="none" stroke="#000000" d="M558,-215.8314C558,-208.131 558,-198.9743 558,-190.4166"/>
<polygon fill="#000000" stroke="#000000" points="561.5001,-190.4132 558,-180.4133 554.5001,-190.4133 561.5001,-190.4132"/>
</g>
<!-- pytest_runtest_logreport&#45;&gt;pytest_runtest_teardown -->
<g id="edge45" class="edge">
<title>pytest_runtest_logreport&#45;&gt;pytest_runtest_teardown</title>
<path fill="none" stroke="#000000" d="M657.5599,-215.9982C770.551,-196.0809 960.5279,-164.1441 1125,-144 1305.9655,-121.8359 1354.4879,-124.6874 1539.8521,-108.0945"/>
<polygon fill="#000000" stroke="#000000" points="1540.29,-111.5693 1549.9351,-107.1849 1539.661,-104.5977 1540.29,-111.5693"/>
</g>
<!-- pytest_pycollect_makeitem&#45;&gt;pytest_pycollect_makeitem -->
<g id="edge22" class="edge">
<title>pytest_pycollect_makeitem&#45;&gt;pytest_pycollect_makeitem</title>
<path fill="none" stroke="#000000" d="M757.2657,-1395.4046C768.3407,-1393.1778 775,-1390.043 775,-1386 775,-1383.3468 772.1321,-1381.0847 767.0303,-1379.2136"/>
<polygon fill="#000000" stroke="#000000" points="767.831,-1375.8048 757.2657,-1376.5954 766.018,-1382.5659 767.831,-1375.8048"/>
</g>
<!-- pytest_generate_tests -->
<g id="node27" class="node">
<title>pytest_generate_tests</title>
<g id="a_node27"><a xlink:href="https://docs.pytest.org/en/6.2.x/reference.html#pytest.hookspec.pytest_generate_tests" xlink:title="pytest_generate_tests">
<polygon fill="none" stroke="#000000" points="757,-1332 397,-1332 397,-1296 757,-1296 757,-1332"/>
<text text-anchor="middle" x="577" y="-1310.3" font-family="Times,serif" font-size="14.00" fill="#000000">pytest_generate_tests</text>
</a>
</g>
</g>
<!-- pytest_pycollect_makeitem&#45;&gt;pytest_generate_tests -->
<g id="edge23" class="edge">
<title>pytest_pycollect_makeitem&#45;&gt;pytest_generate_tests</title>
<path fill="none" stroke="#000000" d="M577,-1367.8314C577,-1360.131 577,-1350.9743 577,-1342.4166"/>
<polygon fill="#000000" stroke="#000000" points="580.5001,-1342.4132 577,-1332.4133 573.5001,-1342.4133 580.5001,-1342.4132"/>
</g>
<!-- pytest_pyfunc_call -->
<g id="node22" class="node">
<title>pytest_pyfunc_call</title>
<g id="a_node22"><a xlink:href="https://docs.pytest.org/en/6.2.x/reference.html#pytest.hookspec.pytest_pyfunc_call" xlink:title="pytest_pyfunc_call">
<polygon fill="none" stroke="#000000" points="1154,-108 794,-108 794,-72 1154,-72 1154,-108"/>
<text text-anchor="middle" x="974" y="-86.3" font-family="Times,serif" font-size="14.00" fill="#000000">pytest_pyfunc_call</text>
</a>
</g>
</g>
<!-- pytest_pyfunc_call&#45;&gt;pytest_runtest_makereport -->
<g id="edge44" class="edge">
<title>pytest_pyfunc_call&#45;&gt;pytest_runtest_makereport</title>
<path fill="none" stroke="#000000" d="M999.9982,-108.0278C1029.3182,-127.7463 1078.9306,-159.2953 1125,-180 1310.2148,-263.2402 1540.8334,-326.7321 1663.2708,-357.4973"/>
<polygon fill="#000000" stroke="#000000" points="1662.4266,-360.8939 1672.977,-359.9246 1664.1248,-354.1031 1662.4266,-360.8939"/>
</g>
<!-- pytest_runtest_call&#45;&gt;pytest_pyfunc_call -->
<g id="edge43" class="edge">
<title>pytest_runtest_call&#45;&gt;pytest_pyfunc_call</title>
<path fill="none" stroke="#000000" d="M662.1692,-143.9707C722.241,-133.5737 797.853,-120.487 859.5762,-109.8041"/>
<polygon fill="#000000" stroke="#000000" points="860.4938,-113.1974 869.7504,-108.0432 859.3,-106.3 860.4938,-113.1974"/>
</g>
<!-- pytest_runtest_teardown&#45;&gt;pytest_runtest_makereport -->
<g id="edge53" class="edge">
<title>pytest_runtest_teardown&#45;&gt;pytest_runtest_makereport</title>
<path fill="none" stroke="#000000" d="M1804.8387,-108.086C1837.8813,-117.7305 1871.4202,-130.4002 1881,-144 1931.9703,-216.3594 1834.851,-310.0167 1781.1781,-353.6405"/>
<polygon fill="#000000" stroke="#000000" points="1778.9068,-350.9753 1773.2816,-359.9535 1783.2779,-356.4428 1778.9068,-350.9753"/>
</g>
<!-- pytest_fixture_post_finalizer -->
<g id="node33" class="node">
<title>pytest_fixture_post_finalizer</title>
<g id="a_node33"><a xlink:href="https://docs.pytest.org/en/6.2.x/reference.html#pytest.hookspec.pytest_fixture_post_finalizer" xlink:title="pytest_fixture_post_finalizer">
<polygon fill="none" stroke="#000000" points="2014,-36 1654,-36 1654,0 2014,0 2014,-36"/>
<text text-anchor="middle" x="1834" y="-14.3" font-family="Times,serif" font-size="14.00" fill="#000000">pytest_fixture_post_finalizer</text>
</a>
</g>
</g>
<!-- pytest_runtest_teardown&#45;&gt;pytest_fixture_post_finalizer -->
<g id="edge46" class="edge">
<title>pytest_runtest_teardown&#45;&gt;pytest_fixture_post_finalizer</title>
<path fill="none" stroke="#000000" d="M1756.2436,-71.8314C1769.2995,-62.7927 1785.2535,-51.7476 1799.3047,-42.0198"/>
<polygon fill="#000000" stroke="#000000" points="1801.5351,-44.7326 1807.7648,-36.1628 1797.5506,-38.9773 1801.5351,-44.7326"/>
</g>
<!-- pytest_runtestloop&#45;&gt;pytest_runtest_protocol -->
<g id="edge35" class="edge">
<title>pytest_runtestloop&#45;&gt;pytest_runtest_protocol</title>
<path fill="none" stroke="#000000" d="M1513.6927,-719.8314C1539.3073,-710.0734 1571.0602,-697.977 1597.974,-687.7242"/>
<polygon fill="#000000" stroke="#000000" points="1599.5514,-690.8687 1607.6503,-684.038 1597.0594,-684.3273 1599.5514,-690.8687"/>
</g>
<!-- pytest_plugin_registered&#45;&gt;pytest_configure -->
<g id="edge9" class="edge">
<title>pytest_plugin_registered&#45;&gt;pytest_configure</title>
<path fill="none" stroke="#000000" d="M760.0476,-575.8314C759.2972,-568.131 759.0763,-558.9743 759.3849,-550.4166"/>
<polygon fill="#000000" stroke="#000000" points="762.8792,-550.6161 760.024,-540.4133 755.8935,-550.1697 762.8792,-550.6161"/>
</g>
<!-- pytest_plugin_registered&#45;&gt;pytest_sessionstart -->
<g id="edge11" class="edge">
<title>pytest_plugin_registered&#45;&gt;pytest_sessionstart</title>
<path fill="none" stroke="#000000" d="M854.9541,-575.9243C908.2995,-565.5697 976.5499,-552.5589 1033.3517,-541.9118"/>
<polygon fill="#000000" stroke="#000000" points="1034.2684,-545.3011 1043.4535,-540.0207 1032.9802,-538.4206 1034.2684,-545.3011"/>
</g>
<!-- pytest_plugin_registered&#45;&gt;pytest_plugin_registered -->
<g id="edge3" class="edge">
<title>pytest_plugin_registered&#45;&gt;pytest_plugin_registered</title>
<path fill="none" stroke="#000000" d="M946.2657,-603.4046C957.3407,-601.1778 964,-598.043 964,-594 964,-591.3468 961.1321,-589.0847 956.0303,-587.2136"/>
<polygon fill="#000000" stroke="#000000" points="956.831,-583.8048 946.2657,-584.5954 955.018,-590.5659 956.831,-583.8048"/>
</g>
<!-- pytest_plugin_registered&#45;&gt;pytest_warning_captured -->
<g id="edge4" class="edge">
<title>pytest_plugin_registered&#45;&gt;pytest_warning_captured</title>
<path fill="none" stroke="#000000" d="M766,-612.0089C766,-660.6912 766,-795.1886 766,-853.9345"/>
<polygon fill="#000000" stroke="#000000" points="762.5001,-853.9843 766,-863.9843 769.5001,-853.9843 762.5001,-853.9843"/>
</g>
<!-- pytest_report_header -->
<g id="node40" class="node">
<title>pytest_report_header</title>
<g id="a_node40"><a xlink:href="https://docs.pytest.org/en/6.2.x/reference.html#pytest.hookspec.pytest_report_header" xlink:title="pytest_report_header">
<polygon fill="none" stroke="#000000" points="568,-540 208,-540 208,-504 568,-504 568,-540"/>
<text text-anchor="middle" x="388" y="-518.3" font-family="Times,serif" font-size="14.00" fill="#000000">pytest_report_header</text>
</a>
</g>
</g>
<!-- pytest_plugin_registered&#45;&gt;pytest_report_header -->
<g id="edge13" class="edge">
<title>pytest_plugin_registered&#45;&gt;pytest_report_header</title>
<path fill="none" stroke="#000000" d="M671.1025,-575.9243C616.7409,-565.5697 548.4345,-552.5589 492.5371,-541.9118"/>
<polygon fill="#000000" stroke="#000000" points="493.0869,-538.4537 482.6086,-540.0207 491.7771,-545.3301 493.0869,-538.4537"/>
</g>
<!-- pytest_itemcollected -->
<g id="node30" class="node">
<title>pytest_itemcollected</title>
<g id="a_node30"><a xlink:href="https://docs.pytest.org/en/6.2.x/reference.html#pytest.hookspec.pytest_itemcollected" xlink:title="pytest_itemcollected">
<polygon fill="none" stroke="#000000" points="710,-1260 350,-1260 350,-1224 710,-1224 710,-1260"/>
<text text-anchor="middle" x="530" y="-1238.3" font-family="Times,serif" font-size="14.00" fill="#000000">pytest_itemcollected</text>
</a>
</g>
</g>
<!-- pytest_generate_tests&#45;&gt;pytest_itemcollected -->
<g id="edge27" class="edge">
<title>pytest_generate_tests&#45;&gt;pytest_itemcollected</title>
<path fill="none" stroke="#000000" d="M565.1399,-1295.8314C559.8371,-1287.7079 553.4763,-1277.9637 547.6327,-1269.0118"/>
<polygon fill="#000000" stroke="#000000" points="550.4169,-1266.8739 542.0198,-1260.4133 544.5552,-1270.7003 550.4169,-1266.8739"/>
</g>
<!-- pytest_make_parametrize_id -->
<g id="node31" class="node">
<title>pytest_make_parametrize_id</title>
<g id="a_node31"><a xlink:href="https://docs.pytest.org/en/6.2.x/reference.html#pytest.hookspec.pytest_make_parametrize_id" xlink:title="pytest_make_parametrize_id">
<polygon fill="none" stroke="#000000" points="1106,-1260 746,-1260 746,-1224 1106,-1224 1106,-1260"/>
<text text-anchor="middle" x="926" y="-1238.3" font-family="Times,serif" font-size="14.00" fill="#000000">pytest_make_parametrize_id</text>
</a>
</g>
</g>
<!-- pytest_generate_tests&#45;&gt;pytest_make_parametrize_id -->
<g id="edge24" class="edge">
<title>pytest_generate_tests&#45;&gt;pytest_make_parametrize_id</title>
<path fill="none" stroke="#000000" d="M664.617,-1295.9243C714.6002,-1285.6126 777.3519,-1272.6666 828.8412,-1262.0442"/>
<polygon fill="#000000" stroke="#000000" points="829.5632,-1265.4691 838.6497,-1260.0207 828.1488,-1258.6134 829.5632,-1265.4691"/>
</g>
<!-- pytest_runtest_setup&#45;&gt;pytest_fixture_setup -->
<g id="edge38" class="edge">
<title>pytest_runtest_setup&#45;&gt;pytest_fixture_setup</title>
<path fill="none" stroke="#000000" d="M1650.2055,-503.8314C1648.1511,-496.0463 1645.704,-486.7729 1643.4244,-478.1347"/>
<polygon fill="#000000" stroke="#000000" points="1646.7948,-477.1892 1640.8591,-468.4133 1640.0265,-478.9753 1646.7948,-477.1892"/>
</g>
<!-- pytest_runtest_setup&#45;&gt;pytest_runtest_makereport -->
<g id="edge50" class="edge">
<title>pytest_runtest_setup&#45;&gt;pytest_runtest_makereport</title>
<path fill="none" stroke="#000000" d="M1743.3365,-503.9795C1779.1131,-494.7274 1814.4864,-482.3708 1825,-468 1834.4472,-455.0868 1832.339,-446.2175 1825,-432 1818.7288,-419.8511 1808.3218,-409.8403 1797.1911,-401.8794"/>
<polygon fill="#000000" stroke="#000000" points="1798.8655,-398.7905 1788.5948,-396.1898 1795.0019,-404.6277 1798.8655,-398.7905"/>
</g>
<!-- pytest_addoption -->
<g id="node29" class="node">
<title>pytest_addoption</title>
<g id="a_node29"><a xlink:href="https://docs.pytest.org/en/6.2.x/reference.html#pytest.hookspec.pytest_addoption" xlink:title="pytest_addoption">
<polygon fill="none" stroke="#000000" points="738,-684 378,-684 378,-648 738,-648 738,-684"/>
<text text-anchor="middle" x="558" y="-662.3" font-family="Times,serif" font-size="14.00" fill="#000000">pytest_addoption</text>
</a>
</g>
</g>
<!-- pytest_addoption&#45;&gt;pytest_plugin_registered -->
<g id="edge2" class="edge">
<title>pytest_addoption&#45;&gt;pytest_plugin_registered</title>
<path fill="none" stroke="#000000" d="M610.2187,-647.9243C638.7771,-638.0387 674.3295,-625.7321 704.2568,-615.3726"/>
<polygon fill="#000000" stroke="#000000" points="705.4549,-618.6618 713.7598,-612.0831 703.165,-612.0469 705.4549,-618.6618"/>
</g>
<!-- pytest_itemcollected&#45;&gt;pytest_collectreport -->
<g id="edge29" class="edge">
<title>pytest_itemcollected&#45;&gt;pytest_collectreport</title>
<path fill="none" stroke="#000000" d="M533.7851,-1223.8314C535.3894,-1216.131 537.297,-1206.9743 539.0799,-1198.4166"/>
<polygon fill="#000000" stroke="#000000" points="542.5507,-1198.9169 541.1639,-1188.4133 535.6979,-1197.4892 542.5507,-1198.9169"/>
</g>
<!-- pytest_itemcollected&#45;&gt;pytest_itemcollected -->
<g id="edge28" class="edge">
<title>pytest_itemcollected&#45;&gt;pytest_itemcollected</title>
<path fill="none" stroke="#000000" d="M710.2657,-1251.4046C721.3407,-1249.1778 728,-1246.043 728,-1242 728,-1239.3468 725.1321,-1237.0847 720.0303,-1235.2136"/>
<polygon fill="#000000" stroke="#000000" points="720.831,-1231.8048 710.2657,-1232.5954 719.018,-1238.5659 720.831,-1231.8048"/>
</g>
<!-- pytest_make_parametrize_id&#45;&gt;pytest_pycollect_makeitem -->
<g id="edge26" class="edge">
<title>pytest_make_parametrize_id&#45;&gt;pytest_pycollect_makeitem</title>
<path fill="none" stroke="#000000" d="M898.4006,-1260.1743C867.2872,-1280.0226 814.6775,-1311.6861 766,-1332 734.0344,-1345.3398 697.7057,-1356.5903 665.4988,-1365.3113"/>
<polygon fill="#000000" stroke="#000000" points="664.4073,-1361.9799 655.6452,-1367.9361 666.2092,-1368.744 664.4073,-1361.9799"/>
</g>
<!-- pytest_make_parametrize_id&#45;&gt;pytest_make_parametrize_id -->
<g id="edge25" class="edge">
<title>pytest_make_parametrize_id&#45;&gt;pytest_make_parametrize_id</title>
<path fill="none" stroke="#000000" d="M1106.2657,-1251.4046C1117.3407,-1249.1778 1124,-1246.043 1124,-1242 1124,-1239.3468 1121.1321,-1237.0847 1116.0303,-1235.2136"/>
<polygon fill="#000000" stroke="#000000" points="1116.831,-1231.8048 1106.2657,-1232.5954 1115.018,-1238.5659 1116.831,-1231.8048"/>
</g>
<!-- pytest_runtest_makereport&#45;&gt;pytest_report_teststatus -->
<g id="edge40" class="edge">
<title>pytest_runtest_makereport&#45;&gt;pytest_report_teststatus</title>
<path fill="none" stroke="#000000" d="M1568.7344,-363.2342C1420.556,-351.0967 1211.1958,-333.9478 1060.3318,-321.5903"/>
<polygon fill="#000000" stroke="#000000" points="1060.2791,-318.0744 1050.0267,-320.7462 1059.7076,-325.051 1060.2791,-318.0744"/>
</g>
<!-- pytest_fixture_post_finalizer&#45;&gt;pytest_runtest_makereport -->
<g id="edge47" class="edge">
<title>pytest_fixture_post_finalizer&#45;&gt;pytest_runtest_makereport</title>
<path fill="none" stroke="#000000" d="M1879.9486,-36.1461C1895.1745,-44.6237 1910.4128,-56.371 1919,-72 1926.7047,-86.0228 1922.8469,-92.4693 1919,-108 1893.998,-208.9372 1814.2471,-307.0295 1773.4885,-352.1704"/>
<polygon fill="#000000" stroke="#000000" points="1770.7529,-349.9755 1766.5889,-359.7178 1775.9194,-354.6986 1770.7529,-349.9755"/>
</g>
<!-- pytest_addhooks -->
<g id="node34" class="node">
<title>pytest_addhooks</title>
<g id="a_node34"><a xlink:href="https://docs.pytest.org/en/6.2.x/reference.html#pytest.hookspec.pytest_addhooks" xlink:title="pytest_addhooks">
<polygon fill="none" stroke="#000000" points="738,-756 378,-756 378,-720 738,-720 738,-756"/>
<text text-anchor="middle" x="558" y="-734.3" font-family="Times,serif" font-size="14.00" fill="#000000">pytest_addhooks</text>
</a>
</g>
</g>
<!-- pytest_addhooks&#45;&gt;pytest_addoption -->
<g id="edge1" class="edge">
<title>pytest_addhooks&#45;&gt;pytest_addoption</title>
<path fill="none" stroke="#000000" d="M558,-719.8314C558,-712.131 558,-702.9743 558,-694.4166"/>
<polygon fill="#000000" stroke="#000000" points="561.5001,-694.4132 558,-684.4133 554.5001,-694.4133 561.5001,-694.4132"/>
</g>
<!-- pytest_collect_file -->
<g id="node37" class="node">
<title>pytest_collect_file</title>
<g id="a_node37"><a xlink:href="https://docs.pytest.org/en/6.2.x/reference.html#pytest.hookspec.pytest_collect_file" xlink:title="pytest_collect_file">
<polygon fill="none" stroke="#000000" points="568,-324 208,-324 208,-288 568,-288 568,-324"/>
<text text-anchor="middle" x="388" y="-302.3" font-family="Times,serif" font-size="14.00" fill="#000000">pytest_collect_file</text>
</a>
</g>
</g>
<!-- pytest_ignore_collect&#45;&gt;pytest_collect_file -->
<g id="edge16" class="edge">
<title>pytest_ignore_collect&#45;&gt;pytest_collect_file</title>
<path fill="none" stroke="#000000" d="M382.0476,-359.8314C381.2972,-352.131 381.0763,-342.9743 381.3849,-334.4166"/>
<polygon fill="#000000" stroke="#000000" points="384.8792,-334.6161 382.024,-324.4133 377.8935,-334.1697 384.8792,-334.6161"/>
</g>
<!-- pytest_collect_file&#45;&gt;pytest_ignore_collect -->
<g id="edge17" class="edge">
<title>pytest_collect_file&#45;&gt;pytest_ignore_collect</title>
<path fill="none" stroke="#000000" d="M393.976,-324.4133C394.7071,-332.0593 394.9203,-341.1084 394.6155,-349.5726"/>
<polygon fill="#000000" stroke="#000000" points="391.1048,-349.6264 393.9524,-359.8314 398.0902,-350.078 391.1048,-349.6264"/>
</g>
<!-- pytest_pycollect_makemodule -->
<g id="node39" class="node">
<title>pytest_pycollect_makemodule</title>
<g id="a_node39"><a xlink:href="https://docs.pytest.org/en/6.2.x/reference.html#pytest.hookspec.pytest_pycollect_makemodule" xlink:title="pytest_pycollect_makemodule">
<polygon fill="none" stroke="#000000" points="360,-252 0,-252 0,-216 360,-216 360,-252"/>
<text text-anchor="middle" x="180" y="-230.3" font-family="Times,serif" font-size="14.00" fill="#000000">pytest_pycollect_makemodule</text>
</a>
</g>
</g>
<!-- pytest_collect_file&#45;&gt;pytest_pycollect_makemodule -->
<g id="edge18" class="edge">
<title>pytest_collect_file&#45;&gt;pytest_pycollect_makemodule</title>
<path fill="none" stroke="#000000" d="M335.7813,-287.9243C307.2229,-278.0387 271.6705,-265.7321 241.7432,-255.3726"/>
<polygon fill="#000000" stroke="#000000" points="242.835,-252.0469 232.2402,-252.0831 240.5451,-258.6618 242.835,-252.0469"/>
</g>
<!-- pytest_warning_captured&#45;&gt;pytest_warning_recorded -->
<g id="edge5" class="edge">
<title>pytest_warning_captured&#45;&gt;pytest_warning_recorded</title>
<path fill="none" stroke="#000000" d="M818.2187,-863.9243C846.7771,-854.0387 882.3295,-841.7321 912.2568,-831.3726"/>
<polygon fill="#000000" stroke="#000000" points="913.4549,-834.6618 921.7598,-828.0831 911.165,-828.0469 913.4549,-834.6618"/>
</g>
<!-- pytest_pycollect_makemodule&#45;&gt;pytest_collectstart -->
<g id="edge19" class="edge">
<title>pytest_pycollect_makemodule&#45;&gt;pytest_collectstart</title>
<path fill="none" stroke="#000000" d="M180,-252.1854C180,-279.5017 180,-332.75 180,-378 180,-1386 180,-1386 180,-1386 180,-1449.0828 246.5481,-1487.4206 302.4827,-1508.5027"/>
<polygon fill="#000000" stroke="#000000" points="301.4748,-1511.8604 312.0689,-1511.9898 303.8678,-1505.2821 301.4748,-1511.8604"/>
</g>
<!-- pytest_report_header&#45;&gt;pytest_collection -->
<g id="edge14" class="edge">
<title>pytest_report_header&#45;&gt;pytest_collection</title>
<path fill="none" stroke="#000000" d="M388,-503.8314C388,-496.131 388,-486.9743 388,-478.4166"/>
<polygon fill="#000000" stroke="#000000" points="391.5001,-478.4132 388,-468.4133 384.5001,-478.4133 391.5001,-478.4132"/>
</g>
<!-- pytest_sessionfinish&#45;&gt;pytest_terminal_summary -->
<g id="edge55" class="edge">
<title>pytest_sessionfinish&#45;&gt;pytest_terminal_summary</title>
<path fill="none" stroke="#000000" d="M1304.3073,-71.8314C1278.6927,-62.0734 1246.9398,-49.977 1220.026,-39.7242"/>
<polygon fill="#000000" stroke="#000000" points="1220.9406,-36.3273 1210.3497,-36.038 1218.4486,-42.8687 1220.9406,-36.3273"/>
</g>
</g>
</svg>
