<?xml version="1.0" encoding="UTF-8" standalone="no"?>
<!DOCTYPE svg PUBLIC "-//W3C//DTD SVG 1.1//EN"
 "http://www.w3.org/Graphics/SVG/1.1/DTD/svg11.dtd">
<!-- Generated by graphviz version 2.40.1 (20161225.0304)
 -->
<!-- Title: %3 Pages: 1 -->
<svg width="2532pt" height="1916pt"
 viewBox="0.00 0.00 2532.00 1916.00" xmlns="http://www.w3.org/2000/svg" xmlns:xlink="http://www.w3.org/1999/xlink">
<g id="graph0" class="graph" transform="scale(1 1) rotate(0) translate(4 1912)">
<title>%3</title>
<polygon fill="#ffffff" stroke="transparent" points="-4,4 -4,-1912 2528,-1912 2528,4 -4,4"/>
<!-- pytest_collection -->
<g id="node1" class="node">
<title>pytest_collection</title>
<g id="a_node1"><a xlink:href="https://docs.pytest.org/en/6.2.x/reference.html#pytest.hookspec.pytest_collection" xlink:title="pytest_collection" target="_blank">
<polygon fill="none" stroke="#000000" points="992,-1908 632,-1908 632,-1872 992,-1872 992,-1908"/>
<text text-anchor="middle" x="812" y="-1886.3" font-family="Times,serif" font-size="14.00" fill="#000000">pytest_collection</text>
</a>
</g>
</g>
<!-- pytest_ignore_collect -->
<g id="node7" class="node">
<title>pytest_ignore_collect</title>
<g id="a_node7"><a xlink:href="https://docs.pytest.org/en/6.2.x/reference.html#pytest.hookspec.pytest_ignore_collect" xlink:title="pytest_ignore_collect" target="_blank">
<polygon fill="none" stroke="#000000" points="1190,-1836 830,-1836 830,-1800 1190,-1800 1190,-1836"/>
<text text-anchor="middle" x="1010" y="-1814.3" font-family="Times,serif" font-size="14.00" fill="#000000">pytest_ignore_collect</text>
</a>
</g>
</g>
<!-- pytest_collection&#45;&gt;pytest_ignore_collect -->
<g id="edge15" class="edge">
<title>pytest_collection&#45;&gt;pytest_ignore_collect</title>
<path fill="none" stroke="#000000" d="M861.7082,-1871.9243C888.7759,-1862.0815 922.4439,-1849.8386 950.8549,-1839.5073"/>
<polygon fill="#000000" stroke="#000000" points="952.0695,-1842.7899 960.2714,-1836.0831 949.6773,-1836.2114 952.0695,-1842.7899"/>
</g>
<!-- pytest_report_collectionfinish -->
<g id="node2" class="node">
<title>pytest_report_collectionfinish</title>
<g id="a_node2"><a xlink:href="https://docs.pytest.org/en/6.2.x/reference.html#pytest.hookspec.pytest_report_collectionfinish" xlink:title="pytest_report_collectionfinish" target="_blank">
<polygon fill="none" stroke="#000000" points="1096,-1116 736,-1116 736,-1080 1096,-1080 1096,-1116"/>
<text text-anchor="middle" x="916" y="-1094.3" font-family="Times,serif" font-size="14.00" fill="#000000">pytest_report_collectionfinish</text>
</a>
</g>
</g>
<!-- pytest_collection_finish -->
<g id="node31" class="node">
<title>pytest_collection_finish</title>
<g id="a_node31"><a xlink:href="https://docs.pytest.org/en/6.2.x/reference.html#pytest.hookspec.pytest_collection_finish" xlink:title="pytest_collection_finish" target="_blank">
<polygon fill="none" stroke="#000000" points="1096,-1044 736,-1044 736,-1008 1096,-1008 1096,-1044"/>
<text text-anchor="middle" x="916" y="-1022.3" font-family="Times,serif" font-size="14.00" fill="#000000">pytest_collection_finish</text>
</a>
</g>
</g>
<!-- pytest_report_collectionfinish&#45;&gt;pytest_collection_finish -->
<g id="edge32" class="edge">
<title>pytest_report_collectionfinish&#45;&gt;pytest_collection_finish</title>
<path fill="none" stroke="#000000" d="M916,-1079.8314C916,-1072.131 916,-1062.9743 916,-1054.4166"/>
<polygon fill="#000000" stroke="#000000" points="919.5001,-1054.4132 916,-1044.4133 912.5001,-1054.4133 919.5001,-1054.4132"/>
</g>
<!-- pytest_runtest_logfinish -->
<g id="node3" class="node">
<title>pytest_runtest_logfinish</title>
<g id="a_node3"><a xlink:href="https://docs.pytest.org/en/6.2.x/reference.html#pytest.hookspec.pytest_runtest_logfinish" xlink:title="pytest_runtest_logfinish" target="_blank">
<polygon fill="none" stroke="#000000" points="2042,-252 1682,-252 1682,-216 2042,-216 2042,-252"/>
<text text-anchor="middle" x="1862" y="-230.3" font-family="Times,serif" font-size="14.00" fill="#000000">pytest_runtest_logfinish</text>
</a>
</g>
</g>
<!-- pytest_runtest_protocol -->
<g id="node6" class="node">
<title>pytest_runtest_protocol</title>
<g id="a_node6"><a xlink:href="https://docs.pytest.org/en/6.2.x/reference.html#pytest.hookspec.pytest_runtest_protocol" xlink:title="pytest_runtest_protocol" target="_blank">
<polygon fill="none" stroke="#000000" points="2335,-756 1975,-756 1975,-720 2335,-720 2335,-756"/>
<text text-anchor="middle" x="2155" y="-734.3" font-family="Times,serif" font-size="14.00" fill="#000000">pytest_runtest_protocol</text>
</a>
</g>
</g>
<!-- pytest_runtest_logfinish&#45;&gt;pytest_runtest_protocol -->
<g id="edge49" class="edge">
<title>pytest_runtest_logfinish&#45;&gt;pytest_runtest_protocol</title>
<path fill="none" stroke="#000000" d="M2013.8762,-252.0212C2209.3212,-277.3161 2524,-326.101 2524,-378 2524,-594 2524,-594 2524,-594 2524,-650.683 2370.9819,-694.0773 2262.0204,-717.7922"/>
<polygon fill="#000000" stroke="#000000" points="2260.9922,-714.4332 2251.9504,-719.9555 2262.4625,-721.277 2260.9922,-714.4332"/>
</g>
<!-- pytest_sessionfinish -->
<g id="node27" class="node">
<title>pytest_sessionfinish</title>
<g id="a_node27"><a xlink:href="https://docs.pytest.org/en/6.2.x/reference.html#pytest.hookspec.pytest_sessionfinish" xlink:title="pytest_sessionfinish" target="_blank">
<polygon fill="none" stroke="#000000" points="2042,-180 1682,-180 1682,-144 2042,-144 2042,-180"/>
<text text-anchor="middle" x="1862" y="-158.3" font-family="Times,serif" font-size="14.00" fill="#000000">pytest_sessionfinish</text>
</a>
</g>
</g>
<!-- pytest_runtest_logfinish&#45;&gt;pytest_sessionfinish -->
<g id="edge54" class="edge">
<title>pytest_runtest_logfinish&#45;&gt;pytest_sessionfinish</title>
<path fill="none" stroke="#000000" d="M1862,-215.8314C1862,-208.131 1862,-198.9743 1862,-190.4166"/>
<polygon fill="#000000" stroke="#000000" points="1865.5001,-190.4132 1862,-180.4133 1858.5001,-190.4133 1865.5001,-190.4132"/>
</g>
<!-- pytest_cmdline_preparse -->
<g id="node4" class="node">
<title>pytest_cmdline_preparse</title>
<g id="a_node4"><a xlink:href="https://docs.pytest.org/en/6.2.x/reference.html#pytest.hookspec.pytest_cmdline_preparse" xlink:title="pytest_cmdline_preparse" target="_blank">
<polygon fill="none" stroke="#000000" points="1132,-828 772,-828 772,-792 1132,-792 1132,-828"/>
<text text-anchor="middle" x="952" y="-806.3" font-family="Times,serif" font-size="14.00" fill="#000000">pytest_cmdline_preparse</text>
</a>
</g>
</g>
<!-- pytest_cmdline_main -->
<g id="node19" class="node">
<title>pytest_cmdline_main</title>
<g id="a_node19"><a xlink:href="https://docs.pytest.org/en/6.2.x/reference.html#pytest.hookspec.pytest_cmdline_main" xlink:title="pytest_cmdline_main" target="_blank">
<polygon fill="none" stroke="#000000" points="1118,-684 758,-684 758,-648 1118,-648 1118,-684"/>
<text text-anchor="middle" x="938" y="-662.3" font-family="Times,serif" font-size="14.00" fill="#000000">pytest_cmdline_main</text>
</a>
</g>
</g>
<!-- pytest_cmdline_preparse&#45;&gt;pytest_cmdline_main -->
<g id="edge7" class="edge">
<title>pytest_cmdline_preparse&#45;&gt;pytest_cmdline_main</title>
<path fill="none" stroke="#000000" d="M950.2269,-791.7623C947.839,-767.201 943.5657,-723.2474 940.7566,-694.3541"/>
<polygon fill="#000000" stroke="#000000" points="944.21,-693.704 939.7587,-684.0896 937.2429,-694.3814 944.21,-693.704"/>
</g>
<!-- pytest_plugin_registered -->
<g id="node5" class="node">
<title>pytest_plugin_registered</title>
<g id="a_node5"><a xlink:href="https://docs.pytest.org/en/6.2.x/reference.html#pytest.hookspec.pytest_plugin_registered" xlink:title="pytest_plugin_registered" target="_blank">
<polygon fill="none" stroke="#000000" points="738,-108 378,-108 378,-72 738,-72 738,-108"/>
<text text-anchor="middle" x="558" y="-86.3" font-family="Times,serif" font-size="14.00" fill="#000000">pytest_plugin_registered</text>
</a>
</g>
</g>
<!-- pytest_plugin_registered&#45;&gt;pytest_plugin_registered -->
<g id="edge3" class="edge">
<title>pytest_plugin_registered&#45;&gt;pytest_plugin_registered</title>
<path fill="none" stroke="#000000" d="M738.2657,-99.4046C749.3407,-97.1778 756,-94.043 756,-90 756,-87.3468 753.1321,-85.0847 748.0303,-83.2136"/>
<polygon fill="#000000" stroke="#000000" points="748.831,-79.8048 738.2657,-80.5954 747.018,-86.5659 748.831,-79.8048"/>
</g>
<!-- pytest_sessionstart -->
<g id="node13" class="node">
<title>pytest_sessionstart</title>
<g id="a_node13"><a xlink:href="https://docs.pytest.org/en/6.2.x/reference.html#pytest.hookspec.pytest_sessionstart" xlink:title="pytest_sessionstart" target="_blank">
<polygon fill="none" stroke="#000000" points="738,-36 378,-36 378,0 738,0 738,-36"/>
<text text-anchor="middle" x="558" y="-14.3" font-family="Times,serif" font-size="14.00" fill="#000000">pytest_sessionstart</text>
</a>
</g>
</g>
<!-- pytest_plugin_registered&#45;&gt;pytest_sessionstart -->
<g id="edge11" class="edge">
<title>pytest_plugin_registered&#45;&gt;pytest_sessionstart</title>
<path fill="none" stroke="#000000" d="M552.0476,-71.8314C551.2972,-64.131 551.0763,-54.9743 551.3849,-46.4166"/>
<polygon fill="#000000" stroke="#000000" points="554.8792,-46.6161 552.024,-36.4133 547.8935,-46.1697 554.8792,-46.6161"/>
</g>
<!-- pytest_configure -->
<g id="node18" class="node">
<title>pytest_configure</title>
<g id="a_node18"><a xlink:href="https://docs.pytest.org/en/6.2.x/reference.html#pytest.hookspec.pytest_configure" xlink:title="pytest_configure" target="_blank">
<polygon fill="none" stroke="#000000" points="360,-36 0,-36 0,0 360,0 360,-36"/>
<text text-anchor="middle" x="180" y="-14.3" font-family="Times,serif" font-size="14.00" fill="#000000">pytest_configure</text>
</a>
</g>
</g>
<!-- pytest_plugin_registered&#45;&gt;pytest_configure -->
<g id="edge9" class="edge">
<title>pytest_plugin_registered&#45;&gt;pytest_configure</title>
<path fill="none" stroke="#000000" d="M457.1592,-71.9243C401.8958,-61.5911 333.7018,-48.6128 278.7677,-37.978"/>
<polygon fill="#000000" stroke="#000000" points="279.154,-34.4878 268.6707,-36.0207 277.8218,-41.3599 279.154,-34.4878"/>
</g>
<!-- pytest_warning_captured -->
<g id="node23" class="node">
<title>pytest_warning_captured</title>
<g id="a_node23"><a xlink:href="https://docs.pytest.org/en/6.2.x/reference.html#pytest.hookspec.pytest_warning_captured" xlink:title="pytest_warning_captured" target="_blank">
<polygon fill="none" stroke="#000000" points="1096,-972 736,-972 736,-936 1096,-936 1096,-972"/>
<text text-anchor="middle" x="916" y="-950.3" font-family="Times,serif" font-size="14.00" fill="#000000">pytest_warning_captured</text>
</a>
</g>
</g>
<!-- pytest_plugin_registered&#45;&gt;pytest_warning_captured -->
<g id="edge4" class="edge">
<title>pytest_plugin_registered&#45;&gt;pytest_warning_captured</title>
<path fill="none" stroke="#000000" d="M592.0767,-108.1752C630.8914,-131.6338 689,-176.3759 689,-234 689,-738 689,-738 689,-738 689,-817.5295 706.1518,-846.504 765,-900 780.5616,-914.1463 800.0864,-924.6458 819.8809,-932.4191"/>
<polygon fill="#000000" stroke="#000000" points="818.6981,-935.7133 829.2911,-935.9108 821.1333,-929.1505 818.6981,-935.7133"/>
</g>
<!-- pytest_report_header -->
<g id="node40" class="node">
<title>pytest_report_header</title>
<g id="a_node40"><a xlink:href="https://docs.pytest.org/en/6.2.x/reference.html#pytest.hookspec.pytest_report_header" xlink:title="pytest_report_header" target="_blank">
<polygon fill="none" stroke="#000000" points="1116,-36 756,-36 756,0 1116,0 1116,-36"/>
<text text-anchor="middle" x="936" y="-14.3" font-family="Times,serif" font-size="14.00" fill="#000000">pytest_report_header</text>
</a>
</g>
</g>
<!-- pytest_plugin_registered&#45;&gt;pytest_report_header -->
<g id="edge13" class="edge">
<title>pytest_plugin_registered&#45;&gt;pytest_report_header</title>
<path fill="none" stroke="#000000" d="M652.8975,-71.9243C707.2591,-61.5697 775.5655,-48.5589 831.4629,-37.9118"/>
<polygon fill="#000000" stroke="#000000" points="832.2229,-41.3301 841.3914,-36.0207 830.9131,-34.4537 832.2229,-41.3301"/>
</g>
<!-- pytest_runtest_logstart -->
<g id="node8" class="node">
<title>pytest_runtest_logstart</title>
<g id="a_node8"><a xlink:href="https://docs.pytest.org/en/6.2.x/reference.html#pytest.hookspec.pytest_runtest_logstart" xlink:title="pytest_runtest_logstart" target="_blank">
<polygon fill="none" stroke="#000000" points="2335,-684 1975,-684 1975,-648 2335,-648 2335,-684"/>
<text text-anchor="middle" x="2155" y="-662.3" font-family="Times,serif" font-size="14.00" fill="#000000">pytest_runtest_logstart</text>
</a>
</g>
</g>
<!-- pytest_runtest_protocol&#45;&gt;pytest_runtest_logstart -->
<g id="edge36" class="edge">
<title>pytest_runtest_protocol&#45;&gt;pytest_runtest_logstart</title>
<path fill="none" stroke="#000000" d="M2155,-719.8314C2155,-712.131 2155,-702.9743 2155,-694.4166"/>
<polygon fill="#000000" stroke="#000000" points="2158.5001,-694.4132 2155,-684.4133 2151.5001,-694.4133 2158.5001,-694.4132"/>
</g>
<!-- pytest_collect_file -->
<g id="node12" class="node">
<title>pytest_collect_file</title>
<g id="a_node12"><a xlink:href="https://docs.pytest.org/en/6.2.x/reference.html#pytest.hookspec.pytest_collect_file" xlink:title="pytest_collect_file" target="_blank">
<polygon fill="none" stroke="#000000" points="1190,-1764 830,-1764 830,-1728 1190,-1728 1190,-1764"/>
<text text-anchor="middle" x="1010" y="-1742.3" font-family="Times,serif" font-size="14.00" fill="#000000">pytest_collect_file</text>
</a>
</g>
</g>
<!-- pytest_ignore_collect&#45;&gt;pytest_collect_file -->
<g id="edge16" class="edge">
<title>pytest_ignore_collect&#45;&gt;pytest_collect_file</title>
<path fill="none" stroke="#000000" d="M1004.0476,-1799.8314C1003.2972,-1792.131 1003.0763,-1782.9743 1003.3849,-1774.4166"/>
<polygon fill="#000000" stroke="#000000" points="1006.8792,-1774.6161 1004.024,-1764.4133 999.8935,-1774.1697 1006.8792,-1774.6161"/>
</g>
<!-- pytest_runtest_setup -->
<g id="node11" class="node">
<title>pytest_runtest_setup</title>
<g id="a_node11"><a xlink:href="https://docs.pytest.org/en/6.2.x/reference.html#pytest.hookspec.pytest_runtest_setup" xlink:title="pytest_runtest_setup" target="_blank">
<polygon fill="none" stroke="#000000" points="2335,-612 1975,-612 1975,-576 2335,-576 2335,-612"/>
<text text-anchor="middle" x="2155" y="-590.3" font-family="Times,serif" font-size="14.00" fill="#000000">pytest_runtest_setup</text>
</a>
</g>
</g>
<!-- pytest_runtest_logstart&#45;&gt;pytest_runtest_setup -->
<g id="edge37" class="edge">
<title>pytest_runtest_logstart&#45;&gt;pytest_runtest_setup</title>
<path fill="none" stroke="#000000" d="M2155,-647.8314C2155,-640.131 2155,-630.9743 2155,-622.4166"/>
<polygon fill="#000000" stroke="#000000" points="2158.5001,-622.4132 2155,-612.4133 2151.5001,-622.4133 2158.5001,-622.4132"/>
</g>
<!-- pytest_collectreport -->
<g id="node9" class="node">
<title>pytest_collectreport</title>
<g id="a_node9"><a xlink:href="https://docs.pytest.org/en/6.2.x/reference.html#pytest.hookspec.pytest_collectreport" xlink:title="pytest_collectreport" target="_blank">
<polygon fill="none" stroke="#000000" points="1096,-1260 736,-1260 736,-1224 1096,-1224 1096,-1260"/>
<text text-anchor="middle" x="916" y="-1238.3" font-family="Times,serif" font-size="14.00" fill="#000000">pytest_collectreport</text>
</a>
</g>
</g>
<!-- pytest_collection_modifyitems -->
<g id="node30" class="node">
<title>pytest_collection_modifyitems</title>
<g id="a_node30"><a xlink:href="https://docs.pytest.org/en/6.2.x/reference.html#pytest.hookspec.pytest_collection_modifyitems" xlink:title="pytest_collection_modifyitems" target="_blank">
<polygon fill="none" stroke="#000000" points="1096,-1188 736,-1188 736,-1152 1096,-1152 1096,-1188"/>
<text text-anchor="middle" x="916" y="-1166.3" font-family="Times,serif" font-size="14.00" fill="#000000">pytest_collection_modifyitems</text>
</a>
</g>
</g>
<!-- pytest_collectreport&#45;&gt;pytest_collection_modifyitems -->
<g id="edge30" class="edge">
<title>pytest_collectreport&#45;&gt;pytest_collection_modifyitems</title>
<path fill="none" stroke="#000000" d="M916,-1223.8314C916,-1216.131 916,-1206.9743 916,-1198.4166"/>
<polygon fill="#000000" stroke="#000000" points="919.5001,-1198.4132 916,-1188.4133 912.5001,-1198.4133 919.5001,-1198.4132"/>
</g>
<!-- pytest_fixture_setup -->
<g id="node10" class="node">
<title>pytest_fixture_setup</title>
<g id="a_node10"><a xlink:href="https://docs.pytest.org/en/6.2.x/reference.html#pytest.hookspec.pytest_fixture_setup" xlink:title="pytest_fixture_setup" target="_blank">
<polygon fill="none" stroke="#000000" points="2231,-540 1871,-540 1871,-504 2231,-504 2231,-540"/>
<text text-anchor="middle" x="2051" y="-518.3" font-family="Times,serif" font-size="14.00" fill="#000000">pytest_fixture_setup</text>
</a>
</g>
</g>
<!-- pytest_runtest_makereport -->
<g id="node24" class="node">
<title>pytest_runtest_makereport</title>
<g id="a_node24"><a xlink:href="https://docs.pytest.org/en/6.2.x/reference.html#pytest.hookspec.pytest_runtest_makereport" xlink:title="pytest_runtest_makereport" target="_blank">
<polygon fill="none" stroke="#000000" points="2335,-468 1975,-468 1975,-432 2335,-432 2335,-468"/>
<text text-anchor="middle" x="2155" y="-446.3" font-family="Times,serif" font-size="14.00" fill="#000000">pytest_runtest_makereport</text>
</a>
</g>
</g>
<!-- pytest_fixture_setup&#45;&gt;pytest_runtest_makereport -->
<g id="edge39" class="edge">
<title>pytest_fixture_setup&#45;&gt;pytest_runtest_makereport</title>
<path fill="none" stroke="#000000" d="M2077.2436,-503.8314C2090.2995,-494.7927 2106.2535,-483.7476 2120.3047,-474.0198"/>
<polygon fill="#000000" stroke="#000000" points="2122.5351,-476.7326 2128.7648,-468.1628 2118.5506,-470.9773 2122.5351,-476.7326"/>
</g>
<!-- pytest_runtest_setup&#45;&gt;pytest_fixture_setup -->
<g id="edge38" class="edge">
<title>pytest_runtest_setup&#45;&gt;pytest_fixture_setup</title>
<path fill="none" stroke="#000000" d="M2128.7564,-575.8314C2115.7005,-566.7927 2099.7465,-555.7476 2085.6953,-546.0198"/>
<polygon fill="#000000" stroke="#000000" points="2087.4494,-542.9773 2077.2352,-540.1628 2083.4649,-548.7326 2087.4494,-542.9773"/>
</g>
<!-- pytest_runtest_setup&#45;&gt;pytest_runtest_makereport -->
<g id="edge50" class="edge">
<title>pytest_runtest_setup&#45;&gt;pytest_runtest_makereport</title>
<path fill="none" stroke="#000000" d="M2200.9486,-575.8539C2216.1745,-567.3763 2231.4128,-555.629 2240,-540 2247.7047,-525.9772 2247.7047,-518.0228 2240,-504 2233.09,-491.4235 2221.8733,-481.3606 2209.8218,-473.4922"/>
<polygon fill="#000000" stroke="#000000" points="2211.3203,-470.3089 2200.9486,-468.1461 2207.7078,-476.3047 2211.3203,-470.3089"/>
</g>
<!-- pytest_collect_file&#45;&gt;pytest_ignore_collect -->
<g id="edge17" class="edge">
<title>pytest_collect_file&#45;&gt;pytest_ignore_collect</title>
<path fill="none" stroke="#000000" d="M1015.976,-1764.4133C1016.7071,-1772.0593 1016.9203,-1781.1084 1016.6155,-1789.5726"/>
<polygon fill="#000000" stroke="#000000" points="1013.1048,-1789.6264 1015.9524,-1799.8314 1020.0902,-1790.078 1013.1048,-1789.6264"/>
</g>
<!-- pytest_pycollect_makemodule -->
<g id="node32" class="node">
<title>pytest_pycollect_makemodule</title>
<g id="a_node32"><a xlink:href="https://docs.pytest.org/en/6.2.x/reference.html#pytest.hookspec.pytest_pycollect_makemodule" xlink:title="pytest_pycollect_makemodule" target="_blank">
<polygon fill="none" stroke="#000000" points="1237,-1692 877,-1692 877,-1656 1237,-1656 1237,-1692"/>
<text text-anchor="middle" x="1057" y="-1670.3" font-family="Times,serif" font-size="14.00" fill="#000000">pytest_pycollect_makemodule</text>
</a>
</g>
</g>
<!-- pytest_collect_file&#45;&gt;pytest_pycollect_makemodule -->
<g id="edge18" class="edge">
<title>pytest_collect_file&#45;&gt;pytest_pycollect_makemodule</title>
<path fill="none" stroke="#000000" d="M1021.8601,-1727.8314C1027.1629,-1719.7079 1033.5237,-1709.9637 1039.3673,-1701.0118"/>
<polygon fill="#000000" stroke="#000000" points="1042.4448,-1702.7003 1044.9802,-1692.4133 1036.5831,-1698.8739 1042.4448,-1702.7003"/>
</g>
<!-- pytest_sessionstart&#45;&gt;pytest_plugin_registered -->
<g id="edge12" class="edge">
<title>pytest_sessionstart&#45;&gt;pytest_plugin_registered</title>
<path fill="none" stroke="#000000" d="M563.976,-36.4133C564.7071,-44.0593 564.9203,-53.1084 564.6155,-61.5726"/>
<polygon fill="#000000" stroke="#000000" points="561.1048,-61.6264 563.9524,-71.8314 568.0902,-62.078 561.1048,-61.6264"/>
</g>
<!-- pytest_fixture_post_finalizer -->
<g id="node14" class="node">
<title>pytest_fixture_post_finalizer</title>
<g id="a_node14"><a xlink:href="https://docs.pytest.org/en/6.2.x/reference.html#pytest.hookspec.pytest_fixture_post_finalizer" xlink:title="pytest_fixture_post_finalizer" target="_blank">
<polygon fill="none" stroke="#000000" points="2491,-108 2131,-108 2131,-72 2491,-72 2491,-108"/>
<text text-anchor="middle" x="2311" y="-86.3" font-family="Times,serif" font-size="14.00" fill="#000000">pytest_fixture_post_finalizer</text>
</a>
</g>
</g>
<!-- pytest_fixture_post_finalizer&#45;&gt;pytest_runtest_makereport -->
<g id="edge47" class="edge">
<title>pytest_fixture_post_finalizer&#45;&gt;pytest_runtest_makereport</title>
<path fill="none" stroke="#000000" d="M2383.8398,-108.1042C2401.5845,-116.1198 2418.4704,-127.6016 2429,-144 2454.935,-184.3903 2450.8464,-209.2597 2429,-252 2383.6819,-340.6602 2278.0901,-398.7678 2212.0173,-427.879"/>
<polygon fill="#000000" stroke="#000000" points="2210.3579,-424.7833 2202.5675,-431.9639 2213.1354,-431.2087 2210.3579,-424.7833"/>
</g>
<!-- pytest_addhooks -->
<g id="node15" class="node">
<title>pytest_addhooks</title>
<g id="a_node15"><a xlink:href="https://docs.pytest.org/en/6.2.x/reference.html#pytest.hookspec.pytest_addhooks" xlink:title="pytest_addhooks" target="_blank">
<polygon fill="none" stroke="#000000" points="1550,-252 1190,-252 1190,-216 1550,-216 1550,-252"/>
<text text-anchor="middle" x="1370" y="-230.3" font-family="Times,serif" font-size="14.00" fill="#000000">pytest_addhooks</text>
</a>
</g>
</g>
<!-- pytest_addoption -->
<g id="node20" class="node">
<title>pytest_addoption</title>
<g id="a_node20"><a xlink:href="https://docs.pytest.org/en/6.2.x/reference.html#pytest.hookspec.pytest_addoption" xlink:title="pytest_addoption" target="_blank">
<polygon fill="none" stroke="#000000" points="1550,-180 1190,-180 1190,-144 1550,-144 1550,-180"/>
<text text-anchor="middle" x="1370" y="-158.3" font-family="Times,serif" font-size="14.00" fill="#000000">pytest_addoption</text>
</a>
</g>
</g>
<!-- pytest_addhooks&#45;&gt;pytest_addoption -->
<g id="edge1" class="edge">
<title>pytest_addhooks&#45;&gt;pytest_addoption</title>
<path fill="none" stroke="#000000" d="M1370,-215.8314C1370,-208.131 1370,-198.9743 1370,-190.4166"/>
<polygon fill="#000000" stroke="#000000" points="1373.5001,-190.4132 1370,-180.4133 1366.5001,-190.4133 1373.5001,-190.4132"/>
</g>
<!-- pytest_exception_interact -->
<g id="node16" class="node">
<title>pytest_exception_interact</title>
<g id="a_node16"><a xlink:href="https://docs.pytest.org/en/6.2.x/reference.html#pytest.hookspec.pytest_exception_interact" xlink:title="pytest_exception_interact" target="_blank">
<polygon fill="none" stroke="#000000" points="2420,-252 2060,-252 2060,-216 2420,-216 2420,-252"/>
<text text-anchor="middle" x="2240" y="-230.3" font-family="Times,serif" font-size="14.00" fill="#000000">pytest_exception_interact</text>
</a>
</g>
</g>
<!-- pytest_runtest_teardown -->
<g id="node38" class="node">
<title>pytest_runtest_teardown</title>
<g id="a_node38"><a xlink:href="https://docs.pytest.org/en/6.2.x/reference.html#pytest.hookspec.pytest_runtest_teardown" xlink:title="pytest_runtest_teardown" target="_blank">
<polygon fill="none" stroke="#000000" points="2420,-180 2060,-180 2060,-144 2420,-144 2420,-180"/>
<text text-anchor="middle" x="2240" y="-158.3" font-family="Times,serif" font-size="14.00" fill="#000000">pytest_runtest_teardown</text>
</a>
</g>
</g>
<!-- pytest_exception_interact&#45;&gt;pytest_runtest_teardown -->
<g id="edge52" class="edge">
<title>pytest_exception_interact&#45;&gt;pytest_runtest_teardown</title>
<path fill="none" stroke="#000000" d="M2240,-215.8314C2240,-208.131 2240,-198.9743 2240,-190.4166"/>
<polygon fill="#000000" stroke="#000000" points="2243.5001,-190.4132 2240,-180.4133 2236.5001,-190.4133 2243.5001,-190.4132"/>
</g>
<!-- pytest_report_teststatus -->
<g id="node17" class="node">
<title>pytest_report_teststatus</title>
<g id="a_node17"><a xlink:href="https://docs.pytest.org/en/6.2.x/reference.html#pytest.hookspec.pytest_report_teststatus" xlink:title="pytest_report_teststatus" target="_blank">
<polygon fill="none" stroke="#000000" points="1862,-396 1502,-396 1502,-360 1862,-360 1862,-396"/>
<text text-anchor="middle" x="1682" y="-374.3" font-family="Times,serif" font-size="14.00" fill="#000000">pytest_report_teststatus</text>
</a>
</g>
</g>
<!-- pytest_runtest_logreport -->
<g id="node33" class="node">
<title>pytest_runtest_logreport</title>
<g id="a_node33"><a xlink:href="https://docs.pytest.org/en/6.2.x/reference.html#pytest.hookspec.pytest_runtest_logreport" xlink:title="pytest_runtest_logreport" target="_blank">
<polygon fill="none" stroke="#000000" points="1550,-324 1190,-324 1190,-288 1550,-288 1550,-324"/>
<text text-anchor="middle" x="1370" y="-302.3" font-family="Times,serif" font-size="14.00" fill="#000000">pytest_runtest_logreport</text>
</a>
</g>
</g>
<!-- pytest_report_teststatus&#45;&gt;pytest_runtest_logreport -->
<g id="edge41" class="edge">
<title>pytest_report_teststatus&#45;&gt;pytest_runtest_logreport</title>
<path fill="none" stroke="#000000" d="M1603.6719,-359.9243C1559.3594,-349.6983 1503.8211,-336.8818 1458.0087,-326.3097"/>
<polygon fill="#000000" stroke="#000000" points="1458.6206,-322.859 1448.0896,-324.0207 1457.0465,-329.6797 1458.6206,-322.859"/>
</g>
<!-- pytest_unconfigure -->
<g id="node35" class="node">
<title>pytest_unconfigure</title>
<g id="a_node35"><a xlink:href="https://docs.pytest.org/en/6.2.x/reference.html#pytest.hookspec.pytest_unconfigure" xlink:title="pytest_unconfigure" target="_blank">
<polygon fill="none" stroke="#000000" points="1966,-324 1606,-324 1606,-288 1966,-288 1966,-324"/>
<text text-anchor="middle" x="1786" y="-302.3" font-family="Times,serif" font-size="14.00" fill="#000000">pytest_unconfigure</text>
</a>
</g>
</g>
<!-- pytest_report_teststatus&#45;&gt;pytest_unconfigure -->
<g id="edge57" class="edge">
<title>pytest_report_teststatus&#45;&gt;pytest_unconfigure</title>
<path fill="none" stroke="#000000" d="M1708.2436,-359.8314C1721.2995,-350.7927 1737.2535,-339.7476 1751.3047,-330.0198"/>
<polygon fill="#000000" stroke="#000000" points="1753.5351,-332.7326 1759.7648,-324.1628 1749.5506,-326.9773 1753.5351,-332.7326"/>
</g>
<!-- pytest_configure&#45;&gt;pytest_plugin_registered -->
<g id="edge10" class="edge">
<title>pytest_configure&#45;&gt;pytest_plugin_registered</title>
<path fill="none" stroke="#000000" d="M280.5465,-36.0207C335.7639,-46.3444 403.9584,-59.3222 458.9395,-69.9653"/>
<polygon fill="#000000" stroke="#000000" points="458.5625,-73.4573 469.0459,-71.9243 459.8946,-66.5852 458.5625,-73.4573"/>
</g>
<!-- pytest_cmdline_main&#45;&gt;pytest_plugin_registered -->
<g id="edge8" class="edge">
<title>pytest_cmdline_main&#45;&gt;pytest_plugin_registered</title>
<path fill="none" stroke="#000000" d="M885.6248,-647.8171C834.7064,-626.4075 765,-585.5016 765,-522 765,-522 765,-522 765,-378 765,-270.4114 775.2792,-223.6934 703,-144 690.2447,-129.9363 673.4798,-119.5221 655.8916,-111.8143"/>
<polygon fill="#000000" stroke="#000000" points="657.2165,-108.5748 646.6359,-108.0252 654.5644,-115.053 657.2165,-108.5748"/>
</g>
<!-- pytest_addoption&#45;&gt;pytest_plugin_registered -->
<g id="edge2" class="edge">
<title>pytest_addoption&#45;&gt;pytest_plugin_registered</title>
<path fill="none" stroke="#000000" d="M1189.935,-144.8156C1186.9345,-144.5408 1183.9543,-144.2687 1181,-144 1036.0071,-130.812 871.9612,-116.6225 748.6125,-106.0998"/>
<polygon fill="#000000" stroke="#000000" points="748.5686,-102.5835 738.3074,-105.2212 747.9739,-109.5582 748.5686,-102.5835"/>
</g>
<!-- pytest_make_parametrize_id -->
<g id="node21" class="node">
<title>pytest_make_parametrize_id</title>
<g id="a_node21"><a xlink:href="https://docs.pytest.org/en/6.2.x/reference.html#pytest.hookspec.pytest_make_parametrize_id" xlink:title="pytest_make_parametrize_id" target="_blank">
<polygon fill="none" stroke="#000000" points="1492,-1332 1132,-1332 1132,-1296 1492,-1296 1492,-1332"/>
<text text-anchor="middle" x="1312" y="-1310.3" font-family="Times,serif" font-size="14.00" fill="#000000">pytest_make_parametrize_id</text>
</a>
</g>
</g>
<!-- pytest_make_parametrize_id&#45;&gt;pytest_make_parametrize_id -->
<g id="edge25" class="edge">
<title>pytest_make_parametrize_id&#45;&gt;pytest_make_parametrize_id</title>
<path fill="none" stroke="#000000" d="M1492.2657,-1323.4046C1503.3407,-1321.1778 1510,-1318.043 1510,-1314 1510,-1311.3468 1507.1321,-1309.0847 1502.0303,-1307.2136"/>
<polygon fill="#000000" stroke="#000000" points="1502.831,-1303.8048 1492.2657,-1304.5954 1501.018,-1310.5659 1502.831,-1303.8048"/>
</g>
<!-- pytest_pycollect_makeitem -->
<g id="node29" class="node">
<title>pytest_pycollect_makeitem</title>
<g id="a_node29"><a xlink:href="https://docs.pytest.org/en/6.2.x/reference.html#pytest.hookspec.pytest_pycollect_makeitem" xlink:title="pytest_pycollect_makeitem" target="_blank">
<polygon fill="none" stroke="#000000" points="1278,-1476 918,-1476 918,-1440 1278,-1440 1278,-1476"/>
<text text-anchor="middle" x="1098" y="-1454.3" font-family="Times,serif" font-size="14.00" fill="#000000">pytest_pycollect_makeitem</text>
</a>
</g>
</g>
<!-- pytest_make_parametrize_id&#45;&gt;pytest_pycollect_makeitem -->
<g id="edge26" class="edge">
<title>pytest_make_parametrize_id&#45;&gt;pytest_pycollect_makeitem</title>
<path fill="none" stroke="#000000" d="M1311.9541,-1332.101C1310.9048,-1352.3364 1306.0792,-1384.78 1287,-1404 1274.117,-1416.9781 1238.8961,-1428.5539 1202.2985,-1437.6271"/>
<polygon fill="#000000" stroke="#000000" points="1201.3693,-1434.2508 1192.4692,-1439.9987 1203.0112,-1441.0555 1201.3693,-1434.2508"/>
</g>
<!-- pytest_runtestloop -->
<g id="node22" class="node">
<title>pytest_runtestloop</title>
<g id="a_node22"><a xlink:href="https://docs.pytest.org/en/6.2.x/reference.html#pytest.hookspec.pytest_runtestloop" xlink:title="pytest_runtestloop" target="_blank">
<polygon fill="none" stroke="#000000" points="1922,-828 1562,-828 1562,-792 1922,-792 1922,-828"/>
<text text-anchor="middle" x="1742" y="-806.3" font-family="Times,serif" font-size="14.00" fill="#000000">pytest_runtestloop</text>
</a>
</g>
</g>
<!-- pytest_runtestloop&#45;&gt;pytest_runtest_protocol -->
<g id="edge35" class="edge">
<title>pytest_runtestloop&#45;&gt;pytest_runtest_protocol</title>
<path fill="none" stroke="#000000" d="M1845.418,-791.9707C1905.0566,-781.5737 1980.1233,-768.487 2041.4014,-757.8041"/>
<polygon fill="#000000" stroke="#000000" points="2042.2519,-761.2087 2051.5022,-756.0432 2041.0496,-754.3127 2042.2519,-761.2087"/>
</g>
<!-- pytest_warning_recorded -->
<g id="node36" class="node">
<title>pytest_warning_recorded</title>
<g id="a_node36"><a xlink:href="https://docs.pytest.org/en/6.2.x/reference.html#pytest.hookspec.pytest_warning_recorded" xlink:title="pytest_warning_recorded" target="_blank">
<polygon fill="none" stroke="#000000" points="1134,-900 774,-900 774,-864 1134,-864 1134,-900"/>
<text text-anchor="middle" x="954" y="-878.3" font-family="Times,serif" font-size="14.00" fill="#000000">pytest_warning_recorded</text>
</a>
</g>
</g>
<!-- pytest_warning_captured&#45;&gt;pytest_warning_recorded -->
<g id="edge5" class="edge">
<title>pytest_warning_captured&#45;&gt;pytest_warning_recorded</title>
<path fill="none" stroke="#000000" d="M925.589,-935.8314C929.8317,-927.7925 934.9121,-918.1666 939.596,-909.2918"/>
<polygon fill="#000000" stroke="#000000" points="942.7096,-910.8908 944.2819,-900.4133 936.5189,-907.6235 942.7096,-910.8908"/>
</g>
<!-- pytest_runtest_makereport&#45;&gt;pytest_report_teststatus -->
<g id="edge40" class="edge">
<title>pytest_runtest_makereport&#45;&gt;pytest_report_teststatus</title>
<path fill="none" stroke="#000000" d="M2036.5576,-431.9707C1967.8323,-421.5094 1881.2183,-408.325 1810.8016,-397.6062"/>
<polygon fill="#000000" stroke="#000000" points="1810.9467,-394.088 1800.5338,-396.0432 1809.8932,-401.0083 1810.9467,-394.088"/>
</g>
<!-- pytest_terminal_summary -->
<g id="node25" class="node">
<title>pytest_terminal_summary</title>
<g id="a_node25"><a xlink:href="https://docs.pytest.org/en/6.2.x/reference.html#pytest.hookspec.pytest_terminal_summary" xlink:title="pytest_terminal_summary" target="_blank">
<polygon fill="none" stroke="#000000" points="1971,-108 1611,-108 1611,-72 1971,-72 1971,-108"/>
<text text-anchor="middle" x="1791" y="-86.3" font-family="Times,serif" font-size="14.00" fill="#000000">pytest_terminal_summary</text>
</a>
</g>
</g>
<!-- pytest_terminal_summary&#45;&gt;pytest_report_teststatus -->
<g id="edge56" class="edge">
<title>pytest_terminal_summary&#45;&gt;pytest_report_teststatus</title>
<path fill="none" stroke="#000000" d="M1732.0995,-108.1021C1711.6098,-116.5525 1689.6194,-128.2931 1673,-144 1620.4055,-193.7067 1614.3993,-217.7561 1597,-288 1593.1531,-303.5307 1589.2953,-309.9772 1597,-324 1603.91,-336.5765 1615.1267,-346.6394 1627.1782,-354.5078"/>
<polygon fill="#000000" stroke="#000000" points="1625.6797,-357.6911 1636.0514,-359.8539 1629.2922,-351.6953 1625.6797,-357.6911"/>
</g>
<!-- pytest_collectstart -->
<g id="node26" class="node">
<title>pytest_collectstart</title>
<g id="a_node26"><a xlink:href="https://docs.pytest.org/en/6.2.x/reference.html#pytest.hookspec.pytest_collectstart" xlink:title="pytest_collectstart" target="_blank">
<polygon fill="none" stroke="#000000" points="1260,-1620 900,-1620 900,-1584 1260,-1584 1260,-1620"/>
<text text-anchor="middle" x="1080" y="-1598.3" font-family="Times,serif" font-size="14.00" fill="#000000">pytest_collectstart</text>
</a>
</g>
</g>
<!-- pytest_make_collect_report -->
<g id="node39" class="node">
<title>pytest_make_collect_report</title>
<g id="a_node39"><a xlink:href="https://docs.pytest.org/en/6.2.x/reference.html#pytest.hookspec.pytest_make_collect_report" xlink:title="pytest_make_collect_report" target="_blank">
<polygon fill="none" stroke="#000000" points="1272,-1548 912,-1548 912,-1512 1272,-1512 1272,-1548"/>
<text text-anchor="middle" x="1092" y="-1526.3" font-family="Times,serif" font-size="14.00" fill="#000000">pytest_make_collect_report</text>
</a>
</g>
</g>
<!-- pytest_collectstart&#45;&gt;pytest_make_collect_report -->
<g id="edge20" class="edge">
<title>pytest_collectstart&#45;&gt;pytest_make_collect_report</title>
<path fill="none" stroke="#000000" d="M1083.0281,-1583.8314C1084.3115,-1576.131 1085.8376,-1566.9743 1087.2639,-1558.4166"/>
<polygon fill="#000000" stroke="#000000" points="1090.7394,-1558.8526 1088.9311,-1548.4133 1083.8347,-1557.7018 1090.7394,-1558.8526"/>
</g>
<!-- pytest_sessionfinish&#45;&gt;pytest_terminal_summary -->
<g id="edge55" class="edge">
<title>pytest_sessionfinish&#45;&gt;pytest_terminal_summary</title>
<path fill="none" stroke="#000000" d="M1844.0837,-143.8314C1835.6558,-135.2848 1825.459,-124.9443 1816.264,-115.6198"/>
<polygon fill="#000000" stroke="#000000" points="1818.6711,-113.0761 1809.1575,-108.4133 1813.6869,-117.9912 1818.6711,-113.0761"/>
</g>
<!-- pytest_generate_tests -->
<g id="node28" class="node">
<title>pytest_generate_tests</title>
<g id="a_node28"><a xlink:href="https://docs.pytest.org/en/6.2.x/reference.html#pytest.hookspec.pytest_generate_tests" xlink:title="pytest_generate_tests" target="_blank">
<polygon fill="none" stroke="#000000" points="1278,-1404 918,-1404 918,-1368 1278,-1368 1278,-1404"/>
<text text-anchor="middle" x="1098" y="-1382.3" font-family="Times,serif" font-size="14.00" fill="#000000">pytest_generate_tests</text>
</a>
</g>
</g>
<!-- pytest_generate_tests&#45;&gt;pytest_make_parametrize_id -->
<g id="edge24" class="edge">
<title>pytest_generate_tests&#45;&gt;pytest_make_parametrize_id</title>
<path fill="none" stroke="#000000" d="M1151.725,-1367.9243C1181.1073,-1358.0387 1217.6852,-1345.7321 1248.4758,-1335.3726"/>
<polygon fill="#000000" stroke="#000000" points="1249.8911,-1338.5893 1258.2529,-1332.0831 1247.6588,-1331.9548 1249.8911,-1338.5893"/>
</g>
<!-- pytest_itemcollected -->
<g id="node37" class="node">
<title>pytest_itemcollected</title>
<g id="a_node37"><a xlink:href="https://docs.pytest.org/en/6.2.x/reference.html#pytest.hookspec.pytest_itemcollected" xlink:title="pytest_itemcollected" target="_blank">
<polygon fill="none" stroke="#000000" points="1096,-1332 736,-1332 736,-1296 1096,-1296 1096,-1332"/>
<text text-anchor="middle" x="916" y="-1310.3" font-family="Times,serif" font-size="14.00" fill="#000000">pytest_itemcollected</text>
</a>
</g>
</g>
<!-- pytest_generate_tests&#45;&gt;pytest_itemcollected -->
<g id="edge27" class="edge">
<title>pytest_generate_tests&#45;&gt;pytest_itemcollected</title>
<path fill="none" stroke="#000000" d="M1052.0737,-1367.8314C1027.4077,-1358.0734 996.8309,-1345.977 970.914,-1335.7242"/>
<polygon fill="#000000" stroke="#000000" points="972.1824,-1332.4621 961.596,-1332.038 969.6073,-1338.9713 972.1824,-1332.4621"/>
</g>
<!-- pytest_pycollect_makeitem&#45;&gt;pytest_generate_tests -->
<g id="edge23" class="edge">
<title>pytest_pycollect_makeitem&#45;&gt;pytest_generate_tests</title>
<path fill="none" stroke="#000000" d="M1098,-1439.8314C1098,-1432.131 1098,-1422.9743 1098,-1414.4166"/>
<polygon fill="#000000" stroke="#000000" points="1101.5001,-1414.4132 1098,-1404.4133 1094.5001,-1414.4133 1101.5001,-1414.4132"/>
</g>
<!-- pytest_pycollect_makeitem&#45;&gt;pytest_pycollect_makeitem -->
<g id="edge22" class="edge">
<title>pytest_pycollect_makeitem&#45;&gt;pytest_pycollect_makeitem</title>
<path fill="none" stroke="#000000" d="M1278.2657,-1467.4046C1289.3407,-1465.1778 1296,-1462.043 1296,-1458 1296,-1455.3468 1293.1321,-1453.0847 1288.0303,-1451.2136"/>
<polygon fill="#000000" stroke="#000000" points="1288.831,-1447.8048 1278.2657,-1448.5954 1287.018,-1454.5659 1288.831,-1447.8048"/>
</g>
<!-- pytest_collection_modifyitems&#45;&gt;pytest_report_collectionfinish -->
<g id="edge31" class="edge">
<title>pytest_collection_modifyitems&#45;&gt;pytest_report_collectionfinish</title>
<path fill="none" stroke="#000000" d="M916,-1151.8314C916,-1144.131 916,-1134.9743 916,-1126.4166"/>
<polygon fill="#000000" stroke="#000000" points="919.5001,-1126.4132 916,-1116.4133 912.5001,-1126.4133 919.5001,-1126.4132"/>
</g>
<!-- pytest_collection_finish&#45;&gt;pytest_warning_captured -->
<g id="edge33" class="edge">
<title>pytest_collection_finish&#45;&gt;pytest_warning_captured</title>
<path fill="none" stroke="#000000" d="M916,-1007.8314C916,-1000.131 916,-990.9743 916,-982.4166"/>
<polygon fill="#000000" stroke="#000000" points="919.5001,-982.4132 916,-972.4133 912.5001,-982.4133 919.5001,-982.4132"/>
</g>
<!-- pytest_pycollect_makemodule&#45;&gt;pytest_collectstart -->
<g id="edge19" class="edge">
<title>pytest_pycollect_makemodule&#45;&gt;pytest_collectstart</title>
<path fill="none" stroke="#000000" d="M1062.8039,-1655.8314C1065.2908,-1648.0463 1068.2531,-1638.7729 1071.0125,-1630.1347"/>
<polygon fill="#000000" stroke="#000000" points="1074.409,-1631.0041 1074.118,-1620.4133 1067.7409,-1628.874 1074.409,-1631.0041"/>
</g>
<!-- pytest_runtest_logreport&#45;&gt;pytest_runtest_logfinish -->
<g id="edge48" class="edge">
<title>pytest_runtest_logreport&#45;&gt;pytest_runtest_logfinish</title>
<path fill="none" stroke="#000000" d="M1493.2002,-287.9707C1564.8325,-277.4879 1655.1486,-264.2709 1728.4746,-253.5403"/>
<polygon fill="#000000" stroke="#000000" points="1729.317,-256.9544 1738.7048,-252.0432 1728.3033,-250.0282 1729.317,-256.9544"/>
</g>
<!-- pytest_runtest_logreport&#45;&gt;pytest_exception_interact -->
<g id="edge51" class="edge">
<title>pytest_runtest_logreport&#45;&gt;pytest_exception_interact</title>
<path fill="none" stroke="#000000" d="M1550.1277,-291.7178C1732.4564,-277.261 1994.2962,-256.4993 2049.6428,-252.0517"/>
<polygon fill="#000000" stroke="#000000" points="2050.2543,-255.5136 2059.9377,-251.2146 2049.6869,-248.5367 2050.2543,-255.5136"/>
</g>
<!-- pytest_runtest_logreport&#45;&gt;pytest_runtest_teardown -->
<g id="edge45" class="edge">
<title>pytest_runtest_logreport&#45;&gt;pytest_runtest_teardown</title>
<path fill="none" stroke="#000000" d="M1434.8593,-287.9458C1471.3947,-277.6564 1517.8231,-264.3815 1559,-252 1609.8825,-236.7002 1620.9306,-226.5775 1673,-216 1673,-216 1884.8297,-195.8257 2049.5374,-180.1393"/>
<polygon fill="#000000" stroke="#000000" points="2050.1955,-183.5925 2059.8186,-179.1601 2049.5318,-176.6241 2050.1955,-183.5925"/>
</g>
<!-- pytest_runtest_call -->
<g id="node41" class="node">
<title>pytest_runtest_call</title>
<g id="a_node41"><a xlink:href="https://docs.pytest.org/en/6.2.x/reference.html#pytest.hookspec.pytest_runtest_call" xlink:title="pytest_runtest_call" target="_blank">
<polygon fill="none" stroke="#000000" points="1172,-252 812,-252 812,-216 1172,-216 1172,-252"/>
<text text-anchor="middle" x="992" y="-230.3" font-family="Times,serif" font-size="14.00" fill="#000000">pytest_runtest_call</text>
</a>
</g>
</g>
<!-- pytest_runtest_logreport&#45;&gt;pytest_runtest_call -->
<g id="edge42" class="edge">
<title>pytest_runtest_logreport&#45;&gt;pytest_runtest_call</title>
<path fill="none" stroke="#000000" d="M1275.1025,-287.9243C1220.7409,-277.5697 1152.4345,-264.5589 1096.5371,-253.9118"/>
<polygon fill="#000000" stroke="#000000" points="1097.0869,-250.4537 1086.6086,-252.0207 1095.7771,-257.3301 1097.0869,-250.4537"/>
</g>
<!-- pytest_pyfunc_call -->
<g id="node34" class="node">
<title>pytest_pyfunc_call</title>
<g id="a_node34"><a xlink:href="https://docs.pytest.org/en/6.2.x/reference.html#pytest.hookspec.pytest_pyfunc_call" xlink:title="pytest_pyfunc_call" target="_blank">
<polygon fill="none" stroke="#000000" points="1172,-180 812,-180 812,-144 1172,-144 1172,-180"/>
<text text-anchor="middle" x="992" y="-158.3" font-family="Times,serif" font-size="14.00" fill="#000000">pytest_pyfunc_call</text>
</a>
</g>
</g>
<!-- pytest_pyfunc_call&#45;&gt;pytest_runtest_makereport -->
<g id="edge44" class="edge">
<title>pytest_pyfunc_call&#45;&gt;pytest_runtest_makereport</title>
<path fill="none" stroke="#000000" d="M1172.1814,-179.1601C1338.2072,-194.9721 1559,-216 1559,-216 1611.0694,-226.5775 1621.0595,-240.8064 1673,-252 1805.1388,-280.477 1851.8934,-232.1757 1975,-288 2043.8812,-319.2351 2104.8399,-386.5681 2134.9968,-423.842"/>
<polygon fill="#000000" stroke="#000000" points="2132.332,-426.1142 2141.3006,-431.7546 2137.807,-421.7524 2132.332,-426.1142"/>
</g>
<!-- pytest_unconfigure&#45;&gt;pytest_addhooks -->
<g id="edge58" class="edge">
<title>pytest_unconfigure&#45;&gt;pytest_addhooks</title>
<path fill="none" stroke="#000000" d="M1681.8308,-287.9707C1621.759,-277.5737 1546.147,-264.487 1484.4238,-253.8041"/>
<polygon fill="#000000" stroke="#000000" points="1484.7,-250.3 1474.2496,-252.0432 1483.5062,-257.1974 1484.7,-250.3"/>
</g>
<!-- pytest_warning_recorded&#45;&gt;pytest_cmdline_preparse -->
<g id="edge6" class="edge">
<title>pytest_warning_recorded&#45;&gt;pytest_cmdline_preparse</title>
<path fill="none" stroke="#000000" d="M953.4953,-863.8314C953.2814,-856.131 953.0271,-846.9743 952.7894,-838.4166"/>
<polygon fill="#000000" stroke="#000000" points="956.2879,-838.3122 952.5115,-828.4133 949.2906,-838.5066 956.2879,-838.3122"/>
</g>
<!-- pytest_warning_recorded&#45;&gt;pytest_runtestloop -->
<g id="edge34" class="edge">
<title>pytest_warning_recorded&#45;&gt;pytest_runtestloop</title>
<path fill="none" stroke="#000000" d="M1134.289,-865.5269C1259.027,-854.1295 1424.7429,-838.988 1551.6158,-827.3955"/>
<polygon fill="#000000" stroke="#000000" points="1552.1963,-830.8571 1561.8363,-826.4617 1551.5593,-823.8862 1552.1963,-830.8571"/>
</g>
<!-- pytest_itemcollected&#45;&gt;pytest_collectreport -->
<g id="edge29" class="edge">
<title>pytest_itemcollected&#45;&gt;pytest_collectreport</title>
<path fill="none" stroke="#000000" d="M916,-1295.8314C916,-1288.131 916,-1278.9743 916,-1270.4166"/>
<polygon fill="#000000" stroke="#000000" points="919.5001,-1270.4132 916,-1260.4133 912.5001,-1270.4133 919.5001,-1270.4132"/>
</g>
<!-- pytest_itemcollected&#45;&gt;pytest_itemcollected -->
<g id="edge28" class="edge">
<title>pytest_itemcollected&#45;&gt;pytest_itemcollected</title>
<path fill="none" stroke="#000000" d="M1096.2657,-1323.4046C1107.3407,-1321.1778 1114,-1318.043 1114,-1314 1114,-1311.3468 1111.1321,-1309.0847 1106.0303,-1307.2136"/>
<polygon fill="#000000" stroke="#000000" points="1106.831,-1303.8048 1096.2657,-1304.5954 1105.018,-1310.5659 1106.831,-1303.8048"/>
</g>
<!-- pytest_runtest_teardown&#45;&gt;pytest_fixture_post_finalizer -->
<g id="edge46" class="edge">
<title>pytest_runtest_teardown&#45;&gt;pytest_fixture_post_finalizer</title>
<path fill="none" stroke="#000000" d="M2257.9163,-143.8314C2266.3442,-135.2848 2276.541,-124.9443 2285.736,-115.6198"/>
<polygon fill="#000000" stroke="#000000" points="2288.3131,-117.9912 2292.8425,-108.4133 2283.3289,-113.0761 2288.3131,-117.9912"/>
</g>
<!-- pytest_runtest_teardown&#45;&gt;pytest_runtest_makereport -->
<g id="edge53" class="edge">
<title>pytest_runtest_teardown&#45;&gt;pytest_runtest_makereport</title>
<path fill="none" stroke="#000000" d="M2366.4561,-180.0478C2411.9713,-192.9395 2447.9806,-214.8663 2429,-252 2383.6819,-340.6602 2278.0901,-398.7678 2212.0173,-427.879"/>
<polygon fill="#000000" stroke="#000000" points="2210.3579,-424.7833 2202.5675,-431.9639 2213.1354,-431.2087 2210.3579,-424.7833"/>
</g>
<!-- pytest_make_collect_report&#45;&gt;pytest_pycollect_makeitem -->
<g id="edge21" class="edge">
<title>pytest_make_collect_report&#45;&gt;pytest_pycollect_makeitem</title>
<path fill="none" stroke="#000000" d="M1093.5141,-1511.8314C1094.1558,-1504.131 1094.9188,-1494.9743 1095.6319,-1486.4166"/>
<polygon fill="#000000" stroke="#000000" points="1099.1229,-1486.6694 1096.4656,-1476.4133 1092.1471,-1486.088 1099.1229,-1486.6694"/>
</g>
<!-- pytest_report_header&#45;&gt;pytest_collection -->
<g id="edge14" class="edge">
<title>pytest_report_header&#45;&gt;pytest_collection</title>
<path fill="none" stroke="#000000" d="M910.3025,-36.0179C880.4693,-58.1962 831.7001,-98.5494 803,-144 744.6172,-236.4575 727,-268.6522 727,-378 727,-738 727,-738 727,-738 727,-834.3707 708,-857.6293 708,-954 708,-1746 708,-1746 708,-1746 708,-1795.3986 748.7193,-1839.3579 779.1997,-1865.3438"/>
<polygon fill="#000000" stroke="#000000" points="777.1533,-1868.1932 787.0894,-1871.8707 781.6152,-1862.7996 777.1533,-1868.1932"/>
</g>
<!-- pytest_runtest_call&#45;&gt;pytest_pyfunc_call -->
<g id="edge43" class="edge">
<title>pytest_runtest_call&#45;&gt;pytest_pyfunc_call</title>
<path fill="none" stroke="#000000" d="M992,-215.8314C992,-208.131 992,-198.9743 992,-190.4166"/>
<polygon fill="#000000" stroke="#000000" points="995.5001,-190.4132 992,-180.4133 988.5001,-190.4133 995.5001,-190.4132"/>
</g>
</g>
</svg>
